<svg xmlns="http://www.w3.org/2000/svg" xmlns:v="https://svgstorm.com"
viewBox = "0 0 209 230"
width="209"
height="230">
<g fill="None" fill-opacity="0.0" stroke="#000000" stroke-opacity="0.00" stroke-width="0.3"><path d="
M 0.00 230.00 
L 209.00 230.00
L 209.00 0.00
L 0.00 0.00
L 0.00 230.00
M 114.00 20.00 
C 114.60 28.42 114.11 40.18 119.31 47.69 C 124.50 55.21 127.34 70.22 137.22 66.22 C 147.10 62.23 151.13 53.52 159.00 48.00
C 155.82 59.17 145.63 68.15 135.00 72.00
C 144.11 83.04 152.40 94.84 155.00 109.00
C 158.35 109.28 162.84 107.96 165.00 111.00
C 162.00 113.95 158.16 114.96 154.00 115.00
C 150.66 152.22 99.51 158.73 75.00 141.00
C 100.64 150.61 144.92 148.78 150.00 115.00
C 134.11 118.97 115.82 134.49 103.00 115.00
C 101.39 122.94 93.18 126.69 86.00 129.00
C 88.56 133.50 98.12 131.58 96.00 139.00
C 87.31 138.91 74.67 136.63 74.00 126.00
C 64.97 136.99 50.20 125.09 62.25 119.25 C 74.30 113.41 70.82 100.75 82.00 106.00
C 75.66 111.02 77.17 122.60 83.00 128.00
C 85.61 121.26 92.98 119.19 99.00 117.00
C 92.66 110.92 89.13 105.06 80.77 101.23 C 72.41 97.40 67.92 88.12 78.08 83.08 C 88.24 78.05 95.46 78.59 106.00 76.00
C 99.43 65.91 92.28 53.19 98.00 41.00
C 103.63 44.55 101.79 53.35 102.93 59.08 C 104.07 64.80 110.64 69.41 112.00 75.00
C 116.78 74.11 121.28 72.21 126.00 71.00
C 121.35 63.55 115.50 55.87 112.23 47.77 C 108.96 39.67 103.30 24.35 114.00 20.00
M 83.00 74.00 
C 85.11 73.60 87.66 72.62 89.00 71.00
C 76.11 72.49 86.94 61.44 94.68 66.32 C 102.41 71.20 87.76 77.57 83.00 74.00
M 72.00 100.00 
C 73.84 103.10 71.86 107.05 68.00 107.00
C 69.04 110.57 64.32 117.91 60.25 113.74 C 56.19 109.57 67.04 108.08 63.00 103.00
C 65.75 101.17 68.91 100.84 72.00 100.00
M 93.00 112.00 
C 92.86 117.49 84.91 117.70 81.00 120.00
C 83.82 115.91 88.41 113.28 93.00 112.00
M 146.00 121.00 
C 143.31 124.97 138.22 126.42 134.00 128.00
C 136.62 124.18 141.67 119.95 146.00 121.00
M 114.00 129.00 
C 102.72 143.03 124.33 138.39 131.00 133.00
C 125.42 139.59 124.14 140.50 115.00 142.00 C 105.86 143.50 106.21 135.68 106.00 130.00
C 108.11 127.85 111.45 127.22 114.00 129.00
M 17.00 159.00 
C 14.29 160.81 10.88 158.96 12.00 155.00
C 13.75 156.30 17.44 155.74 17.00 159.00
M 16.00 161.00 
C 15.08 167.82 23.56 177.57 24.00 167.00
C 29.07 170.59 22.78 175.96 26.00 179.00
C 21.75 182.99 16.38 177.56 23.00 176.00
C 16.65 175.48 15.15 169.55 11.00 166.00
C 12.34 163.93 14.82 163.10 16.00 161.00
M 62.00 163.00 
C 64.41 167.20 67.36 182.80 59.78 180.22 C 52.20 177.64 47.54 191.52 42.00 182.00
C 50.24 185.34 52.27 176.54 51.00 171.00
C 54.35 171.74 52.60 177.07 56.00 177.00
C 58.02 175.46 55.55 173.11 57.00 171.00
C 60.35 171.74 58.60 177.07 62.00 177.00
C 62.70 173.73 60.57 171.23 61.00 168.00
C 58.22 168.05 55.62 171.01 53.00 169.00
C 54.71 163.97 60.30 168.53 62.00 163.00
M 137.00 163.00 
C 140.58 166.43 131.42 170.44 132.00 165.00
C 134.39 164.67 134.62 163.74 137.00 163.00
M 67.00 164.00 
C 68.37 169.55 69.22 175.47 68.00 181.00
C 65.18 178.07 64.08 167.91 67.00 164.00
M 82.00 165.00 
C 81.21 168.33 77.82 169.07 75.00 168.00
C 75.01 164.41 79.53 164.09 82.00 165.00
M 121.00 181.00 
C 105.13 181.41 87.18 184.28 74.00 177.00
C 76.03 174.25 78.85 171.88 80.00 169.00
C 81.56 171.33 82.15 174.87 82.00 178.00
C 87.01 180.04 88.55 173.46 93.00 174.00
C 92.42 177.86 97.80 179.52 100.00 177.00
C 91.45 174.83 94.08 165.21 102.00 165.00
C 102.81 168.12 99.51 169.80 97.00 170.00
C 100.39 173.81 102.64 179.86 109.00 178.00
C 103.91 177.81 103.95 172.28 108.68 173.34 C 113.40 174.39 113.40 179.83 119.00 178.00
C 118.29 173.36 117.45 168.74 117.00 164.00
C 123.75 165.34 119.31 175.20 121.00 181.00
M 124.00 181.00 
C 122.45 176.05 121.02 169.42 123.00 164.00
C 125.98 168.43 125.61 175.88 124.00 181.00
M 173.00 164.00 
C 174.40 166.22 172.87 169.12 170.00 169.00
C 170.82 167.21 170.12 164.79 173.00 164.00
M 184.00 164.00 
C 188.28 170.39 180.55 171.38 177.77 174.77 C 174.99 178.16 171.90 185.15 166.00 181.00
C 168.47 179.79 171.87 179.58 174.00 177.00
C 169.70 173.31 174.19 164.10 178.00 171.00
C 180.19 168.81 180.81 164.53 184.00 164.00
M 139.00 177.00 
C 140.95 176.13 144.86 176.98 144.00 173.00
C 147.00 178.05 150.13 174.22 152.00 171.00
C 155.60 177.40 155.96 170.16 161.00 175.00
C 161.75 167.95 169.42 170.17 167.00 177.00
C 157.01 178.09 147.81 179.91 138.00 180.00
C 137.71 175.61 132.87 178.21 131.00 176.00
C 133.03 173.25 135.85 170.88 137.00 168.00
C 138.55 170.35 138.21 174.09 139.00 177.00
M 36.00 175.00 
C 41.59 176.56 38.02 171.98 40.00 170.00
C 43.50 171.47 41.43 176.09 42.00 179.00
C 37.10 178.25 41.87 181.00 40.00 183.00
C 36.54 183.29 37.25 180.07 38.00 178.00
C 34.77 180.48 30.72 185.67 26.00 181.00
C 27.53 178.93 31.09 180.93 33.00 179.00
C 27.74 174.65 35.27 165.66 36.00 175.00 Z"/>
</g>
<g fill="None" fill-opacity="0.0" stroke="#348BD0" stroke-opacity="0.99" stroke-width="0.3"><path d="
M 114.00 20.00 
C 103.30 24.35 108.96 39.67 112.23 47.77 C 115.50 55.87 121.35 63.55 126.00 71.00
C 121.28 72.21 116.78 74.11 112.00 75.00
C 110.64 69.41 104.07 64.80 102.93 59.08 C 101.79 53.35 103.63 44.55 98.00 41.00
C 92.28 53.19 99.43 65.91 106.00 76.00
C 95.46 78.59 88.24 78.05 78.08 83.08 C 67.92 88.12 72.41 97.40 80.77 101.23 C 89.13 105.06 92.66 110.92 99.00 117.00
C 92.98 119.19 85.61 121.26 83.00 128.00
C 77.17 122.60 75.66 111.02 82.00 106.00
C 70.82 100.75 74.30 113.41 62.25 119.25 C 50.20 125.09 64.97 136.99 74.00 126.00
C 74.67 136.63 87.31 138.91 96.00 139.00
C 98.12 131.58 88.56 133.50 86.00 129.00
C 93.18 126.69 101.39 122.94 103.00 115.00
C 115.82 134.49 134.11 118.97 150.00 115.00
C 144.92 148.78 100.64 150.61 75.00 141.00
C 99.51 158.73 150.66 152.22 154.00 115.00
C 158.16 114.96 162.00 113.95 165.00 111.00
C 162.84 107.96 158.35 109.28 155.00 109.00
C 152.40 94.84 144.11 83.04 135.00 72.00
C 145.63 68.15 155.82 59.17 159.00 48.00
C 151.13 53.52 147.10 62.23 137.22 66.22 C 127.34 70.22 124.50 55.21 119.31 47.69 C 114.11 40.18 114.60 28.42 114.00 20.00
M 149.00 108.00 
C 143.28 107.96 137.92 106.33 132.00 107.00
C 133.43 95.17 123.47 87.43 117.00 79.00
C 124.89 81.65 126.22 70.86 132.25 79.75 C 138.28 88.63 145.54 97.70 149.00 108.00
M 110.00 81.00 
C 114.11 89.72 124.58 95.29 127.00 105.00
C 121.41 105.16 110.67 105.00 112.00 113.00
C 118.64 113.48 126.50 111.63 132.00 115.00
C 121.85 121.26 111.09 114.05 103.75 106.25 C 96.41 98.45 84.07 97.81 77.00 90.00
C 88.59 87.67 98.43 83.90 110.00 81.00
M 71.00 118.00 
C 72.84 122.54 66.48 124.76 64.00 122.00
C 66.43 120.76 68.24 118.33 71.00 118.00 Z"/>
</g>
<g fill="None" fill-opacity="0.0" stroke="#348BD0" stroke-opacity="1.00" stroke-width="0.3"><path d="
M 83.00 74.00 
C 87.76 77.57 102.41 71.20 94.68 66.32 C 86.94 61.44 76.11 72.49 89.00 71.00
C 87.66 72.62 85.11 73.60 83.00 74.00 Z"/>
</g>
<g fill="None" fill-opacity="0.0" stroke="#000000" stroke-opacity="0.00" stroke-width="0.3"><path d="
M 149.00 108.00 
C 145.54 97.70 138.28 88.63 132.25 79.75 C 126.22 70.86 124.89 81.65 117.00 79.00
C 123.47 87.43 133.43 95.17 132.00 107.00
C 137.92 106.33 143.28 107.96 149.00 108.00 Z"/>
</g>
<g fill="None" fill-opacity="0.0" stroke="#000000" stroke-opacity="0.00" stroke-width="0.3"><path d="
M 110.00 81.00 
C 98.43 83.90 88.59 87.67 77.00 90.00
C 84.07 97.81 96.41 98.45 103.75 106.25 C 111.09 114.05 121.85 121.26 132.00 115.00
C 126.50 111.63 118.64 113.48 112.00 113.00
C 110.67 105.00 121.41 105.16 127.00 105.00
C 124.58 95.29 114.11 89.72 110.00 81.00
M 113.00 93.00 
C 108.35 92.77 106.09 98.38 107.00 103.00
C 101.95 102.82 100.09 95.75 94.00 95.00
C 96.40 89.38 102.24 92.89 105.00 96.00
C 105.70 92.07 112.92 85.24 113.00 93.00 Z"/>
</g>
<g fill="None" fill-opacity="0.0" stroke="#3A8DD1" stroke-opacity="0.96" stroke-width="0.3"><path d="
M 113.00 93.00 
C 112.92 85.24 105.70 92.07 105.00 96.00
C 102.24 92.89 96.40 89.38 94.00 95.00
C 100.09 95.75 101.95 102.82 107.00 103.00
C 106.09 98.38 108.35 92.77 113.00 93.00 Z"/>
</g>
<g fill="None" fill-opacity="0.0" stroke="#4593D3" stroke-opacity="0.96" stroke-width="0.3"><path d="
M 72.00 100.00 
C 68.91 100.84 65.75 101.17 63.00 103.00
C 67.04 108.08 56.19 109.57 60.25 113.74 C 64.32 117.91 69.04 110.57 68.00 107.00
C 71.86 107.05 73.84 103.10 72.00 100.00 Z"/>
</g>
<g fill="None" fill-opacity="0.0" stroke="#348BD0" stroke-opacity="1.00" stroke-width="0.3"><path d="
M 93.00 112.00 
C 88.41 113.28 83.82 115.91 81.00 120.00
C 84.91 117.70 92.86 117.49 93.00 112.00 Z"/>
</g>
<g fill="None" fill-opacity="0.0" stroke="#000000" stroke-opacity="0.00" stroke-width="0.3"><path d="
M 71.00 118.00 
C 68.24 118.33 66.43 120.76 64.00 122.00
C 66.48 124.76 72.84 122.54 71.00 118.00 Z"/>
</g>
<g fill="None" fill-opacity="0.0" stroke="#348BD0" stroke-opacity="1.00" stroke-width="0.3"><path d="
M 146.00 121.00 
C 141.67 119.95 136.62 124.18 134.00 128.00
C 138.22 126.42 143.31 124.97 146.00 121.00 Z"/>
</g>
<g fill="None" fill-opacity="0.0" stroke="#348BD0" stroke-opacity="1.00" stroke-width="0.3"><path d="
M 114.00 129.00 
C 111.45 127.22 108.11 127.85 106.00 130.00
C 106.21 135.68 105.86 143.50 115.00 142.00 C 124.14 140.50 125.42 139.59 131.00 133.00
C 124.33 138.39 102.72 143.03 114.00 129.00 Z"/>
</g>
<g fill="None" fill-opacity="0.0" stroke="#348BD0" stroke-opacity="1.00" stroke-width="0.3"><path d="
M 17.00 159.00 
C 17.44 155.74 13.75 156.30 12.00 155.00
C 10.88 158.96 14.29 160.81 17.00 159.00 Z"/>
</g>
<g fill="None" fill-opacity="0.0" stroke="#348BD0" stroke-opacity="1.00" stroke-width="0.3"><path d="
M 16.00 161.00 
C 14.82 163.10 12.34 163.93 11.00 166.00
C 15.15 169.55 16.65 175.48 23.00 176.00
C 16.38 177.56 21.75 182.99 26.00 179.00
C 22.78 175.96 29.07 170.59 24.00 167.00
C 23.56 177.57 15.08 167.82 16.00 161.00 Z"/>
</g>
<g fill="None" fill-opacity="0.0" stroke="#3389CE" stroke-opacity="0.99" stroke-width="0.3"><path d="
M 62.00 163.00 
C 60.30 168.53 54.71 163.97 53.00 169.00
C 55.62 171.01 58.22 168.05 61.00 168.00
C 60.57 171.23 62.70 173.73 62.00 177.00
C 58.60 177.07 60.35 171.74 57.00 171.00
C 55.55 173.11 58.02 175.46 56.00 177.00
C 52.60 177.07 54.35 171.74 51.00 171.00
C 52.27 176.54 50.24 185.34 42.00 182.00
C 47.54 191.52 52.20 177.64 59.78 180.22 C 67.36 182.80 64.41 167.20 62.00 163.00 Z"/>
</g>
<g fill="None" fill-opacity="0.0" stroke="#5597CE" stroke-opacity="0.96" stroke-width="0.3"><path d="
M 137.00 163.00 
C 134.62 163.74 134.39 164.67 132.00 165.00
C 131.42 170.44 140.58 166.43 137.00 163.00 Z"/>
</g>
<g fill="None" fill-opacity="0.0" stroke="#348BD0" stroke-opacity="1.00" stroke-width="0.3"><path d="
M 67.00 164.00 
C 64.08 167.91 65.18 178.07 68.00 181.00
C 69.22 175.47 68.37 169.55 67.00 164.00 Z"/>
</g>
<g fill="None" fill-opacity="0.0" stroke="#348BD0" stroke-opacity="1.00" stroke-width="0.3"><path d="
M 82.00 165.00 
C 79.53 164.09 75.01 164.41 75.00 168.00
C 77.82 169.07 81.21 168.33 82.00 165.00 Z"/>
</g>
<g fill="None" fill-opacity="0.0" stroke="#348BD0" stroke-opacity="1.00" stroke-width="0.3"><path d="
M 121.00 181.00 
C 119.31 175.20 123.75 165.34 117.00 164.00
C 117.45 168.74 118.29 173.36 119.00 178.00
C 113.40 179.83 113.40 174.39 108.68 173.34 C 103.95 172.28 103.91 177.81 109.00 178.00
C 102.64 179.86 100.39 173.81 97.00 170.00
C 99.51 169.80 102.81 168.12 102.00 165.00
C 94.08 165.21 91.45 174.83 100.00 177.00
C 97.80 179.52 92.42 177.86 93.00 174.00
C 88.55 173.46 87.01 180.04 82.00 178.00
C 82.15 174.87 81.56 171.33 80.00 169.00
C 78.85 171.88 76.03 174.25 74.00 177.00
C 87.18 184.28 105.13 181.41 121.00 181.00 Z"/>
</g>
<g fill="None" fill-opacity="0.0" stroke="#348BD0" stroke-opacity="1.00" stroke-width="0.3"><path d="
M 124.00 181.00 
C 125.61 175.88 125.98 168.43 123.00 164.00
C 121.02 169.42 122.45 176.05 124.00 181.00 Z"/>
</g>
<g fill="None" fill-opacity="0.0" stroke="#348BD0" stroke-opacity="1.00" stroke-width="0.3"><path d="
M 173.00 164.00 
C 170.12 164.79 170.82 167.21 170.00 169.00
C 172.87 169.12 174.40 166.22 173.00 164.00 Z"/>
</g>
<g fill="None" fill-opacity="0.0" stroke="#348BD0" stroke-opacity="1.00" stroke-width="0.3"><path d="
M 184.00 164.00 
C 180.81 164.53 180.19 168.81 178.00 171.00
C 174.19 164.10 169.70 173.31 174.00 177.00
C 171.87 179.58 168.47 179.79 166.00 181.00
C 171.90 185.15 174.99 178.16 177.77 174.77 C 180.55 171.38 188.28 170.39 184.00 164.00 Z"/>
</g>
<g fill="None" fill-opacity="0.0" stroke="#348BD0" stroke-opacity="1.00" stroke-width="0.3"><path d="
M 139.00 177.00 
C 138.21 174.09 138.55 170.35 137.00 168.00
C 135.85 170.88 133.03 173.25 131.00 176.00
C 132.87 178.21 137.71 175.61 138.00 180.00
C 147.81 179.91 157.01 178.09 167.00 177.00
C 169.42 170.17 161.75 167.95 161.00 175.00
C 155.96 170.16 155.60 177.40 152.00 171.00
C 150.13 174.22 147.00 178.05 144.00 173.00
C 144.86 176.98 140.95 176.13 139.00 177.00 Z"/>
</g>
<g fill="None" fill-opacity="0.0" stroke="#3389CD" stroke-opacity="0.99" stroke-width="0.3"><path d="
M 36.00 175.00 
C 35.27 165.66 27.74 174.65 33.00 179.00
C 31.09 180.93 27.53 178.93 26.00 181.00
C 30.72 185.67 34.77 180.48 38.00 178.00
C 37.25 180.07 36.54 183.29 40.00 183.00
C 41.87 181.00 37.10 178.25 42.00 179.00
C 41.43 176.09 43.50 171.47 40.00 170.00
C 38.02 171.98 41.59 176.56 36.00 175.00 Z"/>
</g>
<g fill="#000000" fill-opacity="0.00" stroke="None">
<path d="
M 0.00 230.00 
L 209.00 230.00
L 209.00 0.00
L 0.00 0.00
L 0.00 230.00
M 114.00 20.00 
C 114.60 28.42 114.11 40.18 119.31 47.69 C 124.50 55.21 127.34 70.22 137.22 66.22 C 147.10 62.23 151.13 53.52 159.00 48.00
C 155.82 59.17 145.63 68.15 135.00 72.00
C 144.11 83.04 152.40 94.84 155.00 109.00
C 158.35 109.28 162.84 107.96 165.00 111.00
C 162.00 113.95 158.16 114.96 154.00 115.00
C 150.66 152.22 99.51 158.73 75.00 141.00
C 100.64 150.61 144.92 148.78 150.00 115.00
C 134.11 118.97 115.82 134.49 103.00 115.00
C 101.39 122.94 93.18 126.69 86.00 129.00
C 88.56 133.50 98.12 131.58 96.00 139.00
C 87.31 138.91 74.67 136.63 74.00 126.00
C 64.97 136.99 50.20 125.09 62.25 119.25 C 74.30 113.41 70.82 100.75 82.00 106.00
C 75.66 111.02 77.17 122.60 83.00 128.00
C 85.61 121.26 92.98 119.19 99.00 117.00
C 92.66 110.92 89.13 105.06 80.77 101.23 C 72.41 97.40 67.92 88.12 78.08 83.08 C 88.24 78.05 95.46 78.59 106.00 76.00
C 99.43 65.91 92.28 53.19 98.00 41.00
C 103.63 44.55 101.79 53.35 102.93 59.08 C 104.07 64.80 110.64 69.41 112.00 75.00
C 116.78 74.11 121.28 72.21 126.00 71.00
C 121.35 63.55 115.50 55.87 112.23 47.77 C 108.96 39.67 103.30 24.35 114.00 20.00
M 83.00 74.00 
C 85.11 73.60 87.66 72.62 89.00 71.00
C 76.11 72.49 86.94 61.44 94.68 66.32 C 102.41 71.20 87.76 77.57 83.00 74.00
M 72.00 100.00 
C 73.84 103.10 71.86 107.05 68.00 107.00
C 69.04 110.57 64.32 117.91 60.25 113.74 C 56.19 109.57 67.04 108.08 63.00 103.00
C 65.75 101.17 68.91 100.84 72.00 100.00
M 93.00 112.00 
C 92.86 117.49 84.91 117.70 81.00 120.00
C 83.82 115.91 88.41 113.28 93.00 112.00
M 146.00 121.00 
C 143.31 124.97 138.22 126.42 134.00 128.00
C 136.62 124.18 141.67 119.95 146.00 121.00
M 114.00 129.00 
C 102.72 143.03 124.33 138.39 131.00 133.00
C 125.42 139.59 124.14 140.50 115.00 142.00 C 105.86 143.50 106.21 135.68 106.00 130.00
C 108.11 127.85 111.45 127.22 114.00 129.00
M 17.00 159.00 
C 14.29 160.81 10.88 158.96 12.00 155.00
C 13.75 156.30 17.44 155.74 17.00 159.00
M 16.00 161.00 
C 15.08 167.82 23.56 177.57 24.00 167.00
C 29.07 170.59 22.78 175.96 26.00 179.00
C 21.75 182.99 16.38 177.56 23.00 176.00
C 16.65 175.48 15.15 169.55 11.00 166.00
C 12.34 163.93 14.82 163.10 16.00 161.00
M 62.00 163.00 
C 64.41 167.20 67.36 182.80 59.78 180.22 C 52.20 177.64 47.54 191.52 42.00 182.00
C 50.24 185.34 52.27 176.54 51.00 171.00
C 54.35 171.74 52.60 177.07 56.00 177.00
C 58.02 175.46 55.55 173.11 57.00 171.00
C 60.35 171.74 58.60 177.07 62.00 177.00
C 62.70 173.73 60.57 171.23 61.00 168.00
C 58.22 168.05 55.62 171.01 53.00 169.00
C 54.71 163.97 60.30 168.53 62.00 163.00
M 137.00 163.00 
C 140.58 166.43 131.42 170.44 132.00 165.00
C 134.39 164.67 134.62 163.74 137.00 163.00
M 67.00 164.00 
C 68.37 169.55 69.22 175.47 68.00 181.00
C 65.18 178.07 64.08 167.91 67.00 164.00
M 82.00 165.00 
C 81.21 168.33 77.82 169.07 75.00 168.00
C 75.01 164.41 79.53 164.09 82.00 165.00
M 121.00 181.00 
C 105.13 181.41 87.18 184.28 74.00 177.00
C 76.03 174.25 78.85 171.88 80.00 169.00
C 81.56 171.33 82.15 174.87 82.00 178.00
C 87.01 180.04 88.55 173.46 93.00 174.00
C 92.42 177.86 97.80 179.52 100.00 177.00
C 91.45 174.83 94.08 165.21 102.00 165.00
C 102.81 168.12 99.51 169.80 97.00 170.00
C 100.39 173.81 102.64 179.86 109.00 178.00
C 103.91 177.81 103.95 172.28 108.68 173.34 C 113.40 174.39 113.40 179.83 119.00 178.00
C 118.29 173.36 117.45 168.74 117.00 164.00
C 123.75 165.34 119.31 175.20 121.00 181.00
M 124.00 181.00 
C 122.45 176.05 121.02 169.42 123.00 164.00
C 125.98 168.43 125.61 175.88 124.00 181.00
M 173.00 164.00 
C 174.40 166.22 172.87 169.12 170.00 169.00
C 170.82 167.21 170.12 164.79 173.00 164.00
M 184.00 164.00 
C 188.28 170.39 180.55 171.38 177.77 174.77 C 174.99 178.16 171.90 185.15 166.00 181.00
C 168.47 179.79 171.87 179.58 174.00 177.00
C 169.70 173.31 174.19 164.10 178.00 171.00
C 180.19 168.81 180.81 164.53 184.00 164.00
M 139.00 177.00 
C 140.95 176.13 144.86 176.98 144.00 173.00
C 147.00 178.05 150.13 174.22 152.00 171.00
C 155.60 177.40 155.96 170.16 161.00 175.00
C 161.75 167.95 169.42 170.17 167.00 177.00
C 157.01 178.09 147.81 179.91 138.00 180.00
C 137.71 175.61 132.87 178.21 131.00 176.00
C 133.03 173.25 135.85 170.88 137.00 168.00
C 138.55 170.35 138.21 174.09 139.00 177.00
M 36.00 175.00 
C 41.59 176.56 38.02 171.98 40.00 170.00
C 43.50 171.47 41.43 176.09 42.00 179.00
C 37.10 178.25 41.87 181.00 40.00 183.00
C 36.54 183.29 37.25 180.07 38.00 178.00
C 34.77 180.48 30.72 185.67 26.00 181.00
C 27.53 178.93 31.09 180.93 33.00 179.00
C 27.74 174.65 35.27 165.66 36.00 175.00 Z"/>
</g>
<g fill="#348BD0" fill-opacity="0.99" stroke="None">
<path d="
M 114.00 20.00 
C 103.30 24.35 108.96 39.67 112.23 47.77 C 115.50 55.87 121.35 63.55 126.00 71.00
C 121.28 72.21 116.78 74.11 112.00 75.00
C 110.64 69.41 104.07 64.80 102.93 59.08 C 101.79 53.35 103.63 44.55 98.00 41.00
C 92.28 53.19 99.43 65.91 106.00 76.00
C 95.46 78.59 88.24 78.05 78.08 83.08 C 67.92 88.12 72.41 97.40 80.77 101.23 C 89.13 105.06 92.66 110.92 99.00 117.00
C 92.98 119.19 85.61 121.26 83.00 128.00
C 77.17 122.60 75.66 111.02 82.00 106.00
C 70.82 100.75 74.30 113.41 62.25 119.25 C 50.20 125.09 64.97 136.99 74.00 126.00
C 74.67 136.63 87.31 138.91 96.00 139.00
C 98.12 131.58 88.56 133.50 86.00 129.00
C 93.18 126.69 101.39 122.94 103.00 115.00
C 115.82 134.49 134.11 118.97 150.00 115.00
C 144.92 148.78 100.64 150.61 75.00 141.00
C 99.51 158.73 150.66 152.22 154.00 115.00
C 158.16 114.96 162.00 113.95 165.00 111.00
C 162.84 107.96 158.35 109.28 155.00 109.00
C 152.40 94.84 144.11 83.04 135.00 72.00
C 145.63 68.15 155.82 59.17 159.00 48.00
C 151.13 53.52 147.10 62.23 137.22 66.22 C 127.34 70.22 124.50 55.21 119.31 47.69 C 114.11 40.18 114.60 28.42 114.00 20.00
M 149.00 108.00 
C 143.28 107.96 137.92 106.33 132.00 107.00
C 133.43 95.17 123.47 87.43 117.00 79.00
C 124.89 81.65 126.22 70.86 132.25 79.75 C 138.28 88.63 145.54 97.70 149.00 108.00
M 110.00 81.00 
C 114.11 89.72 124.58 95.29 127.00 105.00
C 121.41 105.16 110.67 105.00 112.00 113.00
C 118.64 113.48 126.50 111.63 132.00 115.00
C 121.85 121.26 111.09 114.05 103.75 106.25 C 96.41 98.45 84.07 97.81 77.00 90.00
C 88.59 87.67 98.43 83.90 110.00 81.00
M 71.00 118.00 
C 72.84 122.54 66.48 124.76 64.00 122.00
C 66.43 120.76 68.24 118.33 71.00 118.00 Z"/>
</g>
<g fill="#348BD0" fill-opacity="1.00" stroke="None">
<path d="
M 83.00 74.00 
C 87.76 77.57 102.41 71.20 94.68 66.32 C 86.94 61.44 76.11 72.49 89.00 71.00
C 87.66 72.62 85.11 73.60 83.00 74.00 Z"/>
</g>
<g fill="#000000" fill-opacity="0.00" stroke="None">
<path d="
M 149.00 108.00 
C 145.54 97.70 138.28 88.63 132.25 79.75 C 126.22 70.86 124.89 81.65 117.00 79.00
C 123.47 87.43 133.43 95.17 132.00 107.00
C 137.92 106.33 143.28 107.96 149.00 108.00 Z"/>
</g>
<g fill="#000000" fill-opacity="0.00" stroke="None">
<path d="
M 110.00 81.00 
C 98.43 83.90 88.59 87.67 77.00 90.00
C 84.07 97.81 96.41 98.45 103.75 106.25 C 111.09 114.05 121.85 121.26 132.00 115.00
C 126.50 111.63 118.64 113.48 112.00 113.00
C 110.67 105.00 121.41 105.16 127.00 105.00
C 124.58 95.29 114.11 89.72 110.00 81.00
M 113.00 93.00 
C 108.35 92.77 106.09 98.38 107.00 103.00
C 101.95 102.82 100.09 95.75 94.00 95.00
C 96.40 89.38 102.24 92.89 105.00 96.00
C 105.70 92.07 112.92 85.24 113.00 93.00 Z"/>
</g>
<g fill="#3A8DD1" fill-opacity="0.96" stroke="None">
<path d="
M 113.00 93.00 
C 112.92 85.24 105.70 92.07 105.00 96.00
C 102.24 92.89 96.40 89.38 94.00 95.00
C 100.09 95.75 101.95 102.82 107.00 103.00
C 106.09 98.38 108.35 92.77 113.00 93.00 Z"/>
</g>
<g fill="#4593D3" fill-opacity="0.96" stroke="None">
<path d="
M 72.00 100.00 
C 68.91 100.84 65.75 101.17 63.00 103.00
C 67.04 108.08 56.19 109.57 60.25 113.74 C 64.32 117.91 69.04 110.57 68.00 107.00
C 71.86 107.05 73.84 103.10 72.00 100.00 Z"/>
</g>
<g fill="#348BD0" fill-opacity="1.00" stroke="None">
<path d="
M 93.00 112.00 
C 88.41 113.28 83.82 115.91 81.00 120.00
C 84.91 117.70 92.86 117.49 93.00 112.00 Z"/>
</g>
<g fill="#000000" fill-opacity="0.00" stroke="None">
<path d="
M 71.00 118.00 
C 68.24 118.33 66.43 120.76 64.00 122.00
C 66.48 124.76 72.84 122.54 71.00 118.00 Z"/>
</g>
<g fill="#348BD0" fill-opacity="1.00" stroke="None">
<path d="
M 146.00 121.00 
C 141.67 119.95 136.62 124.18 134.00 128.00
C 138.22 126.42 143.31 124.97 146.00 121.00 Z"/>
</g>
<g fill="#348BD0" fill-opacity="1.00" stroke="None">
<path d="
M 114.00 129.00 
C 111.45 127.22 108.11 127.85 106.00 130.00
C 106.21 135.68 105.86 143.50 115.00 142.00 C 124.14 140.50 125.42 139.59 131.00 133.00
C 124.33 138.39 102.72 143.03 114.00 129.00 Z"/>
</g>
<g fill="#348BD0" fill-opacity="1.00" stroke="None">
<path d="
M 17.00 159.00 
C 17.44 155.74 13.75 156.30 12.00 155.00
C 10.88 158.96 14.29 160.81 17.00 159.00 Z"/>
</g>
<g fill="#348BD0" fill-opacity="1.00" stroke="None">
<path d="
M 16.00 161.00 
C 14.82 163.10 12.34 163.93 11.00 166.00
C 15.15 169.55 16.65 175.48 23.00 176.00
C 16.38 177.56 21.75 182.99 26.00 179.00
C 22.78 175.96 29.07 170.59 24.00 167.00
C 23.56 177.57 15.08 167.82 16.00 161.00 Z"/>
</g>
<g fill="#3389CE" fill-opacity="0.99" stroke="None">
<path d="
M 62.00 163.00 
C 60.30 168.53 54.71 163.97 53.00 169.00
C 55.62 171.01 58.22 168.05 61.00 168.00
C 60.57 171.23 62.70 173.73 62.00 177.00
C 58.60 177.07 60.35 171.74 57.00 171.00
C 55.55 173.11 58.02 175.46 56.00 177.00
C 52.60 177.07 54.35 171.74 51.00 171.00
C 52.27 176.54 50.24 185.34 42.00 182.00
C 47.54 191.52 52.20 177.64 59.78 180.22 C 67.36 182.80 64.41 167.20 62.00 163.00 Z"/>
</g>
<g fill="#5597CE" fill-opacity="0.96" stroke="None">
<path d="
M 137.00 163.00 
C 134.62 163.74 134.39 164.67 132.00 165.00
C 131.42 170.44 140.58 166.43 137.00 163.00 Z"/>
</g>
<g fill="#348BD0" fill-opacity="1.00" stroke="None">
<path d="
M 67.00 164.00 
C 64.08 167.91 65.18 178.07 68.00 181.00
C 69.22 175.47 68.37 169.55 67.00 164.00 Z"/>
</g>
<g fill="#348BD0" fill-opacity="1.00" stroke="None">
<path d="
M 82.00 165.00 
C 79.53 164.09 75.01 164.41 75.00 168.00
C 77.82 169.07 81.21 168.33 82.00 165.00 Z"/>
</g>
<g fill="#348BD0" fill-opacity="1.00" stroke="None">
<path d="
M 121.00 181.00 
C 119.31 175.20 123.75 165.34 117.00 164.00
C 117.45 168.74 118.29 173.36 119.00 178.00
C 113.40 179.83 113.40 174.39 108.68 173.34 C 103.95 172.28 103.91 177.81 109.00 178.00
C 102.64 179.86 100.39 173.81 97.00 170.00
C 99.51 169.80 102.81 168.12 102.00 165.00
C 94.08 165.21 91.45 174.83 100.00 177.00
C 97.80 179.52 92.42 177.86 93.00 174.00
C 88.55 173.46 87.01 180.04 82.00 178.00
C 82.15 174.87 81.56 171.33 80.00 169.00
C 78.85 171.88 76.03 174.25 74.00 177.00
C 87.18 184.28 105.13 181.41 121.00 181.00 Z"/>
</g>
<g fill="#348BD0" fill-opacity="1.00" stroke="None">
<path d="
M 124.00 181.00 
C 125.61 175.88 125.98 168.43 123.00 164.00
C 121.02 169.42 122.45 176.05 124.00 181.00 Z"/>
</g>
<g fill="#348BD0" fill-opacity="1.00" stroke="None">
<path d="
M 173.00 164.00 
C 170.12 164.79 170.82 167.21 170.00 169.00
C 172.87 169.12 174.40 166.22 173.00 164.00 Z"/>
</g>
<g fill="#348BD0" fill-opacity="1.00" stroke="None">
<path d="
M 184.00 164.00 
C 180.81 164.53 180.19 168.81 178.00 171.00
C 174.19 164.10 169.70 173.31 174.00 177.00
C 171.87 179.58 168.47 179.79 166.00 181.00
C 171.90 185.15 174.99 178.16 177.77 174.77 C 180.55 171.38 188.28 170.39 184.00 164.00 Z"/>
</g>
<g fill="#348BD0" fill-opacity="1.00" stroke="None">
<path d="
M 139.00 177.00 
C 138.21 174.09 138.55 170.35 137.00 168.00
C 135.85 170.88 133.03 173.25 131.00 176.00
C 132.87 178.21 137.71 175.61 138.00 180.00
C 147.81 179.91 157.01 178.09 167.00 177.00
C 169.42 170.17 161.75 167.95 161.00 175.00
C 155.96 170.16 155.60 177.40 152.00 171.00
C 150.13 174.22 147.00 178.05 144.00 173.00
C 144.86 176.98 140.95 176.13 139.00 177.00 Z"/>
</g>
<g fill="#3389CD" fill-opacity="0.99" stroke="None">
<path d="
M 36.00 175.00 
C 35.27 165.66 27.74 174.65 33.00 179.00
C 31.09 180.93 27.53 178.93 26.00 181.00
C 30.72 185.67 34.77 180.48 38.00 178.00
C 37.25 180.07 36.54 183.29 40.00 183.00
C 41.87 181.00 37.10 178.25 42.00 179.00
C 41.43 176.09 43.50 171.47 40.00 170.00
C 38.02 171.98 41.59 176.56 36.00 175.00 Z"/>
</g>
</svg>