<svg xmlns="http://www.w3.org/2000/svg" xmlns:v="https://svgstorm.com"
viewBox = "0 0 209 230"
width="209"
height="230">
<g fill="None" fill-opacity="0.0" stroke="#000000" stroke-opacity="0.00" stroke-width="0.3"><path d="
M 0.00 230.00 
L 209.00 230.00
L 209.00 0.00
L 0.00 0.00
L 0.00 230.00
M 113.00 22.00 
C 116.20 29.51 114.02 37.97 117.92 45.08 C 121.83 52.19 124.89 58.08 129.25 64.75 C 133.62 71.41 143.06 62.67 148.00 59.00
C 150.80 56.56 152.90 53.17 156.00 51.00
C 156.20 50.60 156.00 50.00 156.00 50.00
C 156.54 48.74 157.74 47.46 159.00 47.00
C 158.89 48.00 159.47 49.73 158.00 50.00
C 157.35 52.92 155.80 55.57 154.00 58.00
C 151.52 61.33 148.28 64.56 145.00 67.00
C 142.24 69.06 139.11 70.86 136.00 72.00
C 142.42 83.51 153.74 93.71 154.00 108.00
C 156.61 106.06 169.46 112.06 162.75 113.75 C 156.03 115.44 152.39 115.71 152.02 123.02 C 151.66 130.33 147.34 130.24 145.00 136.00
C 143.46 137.95 141.96 139.54 140.00 141.00
C 121.62 154.67 92.36 152.50 74.00 141.00
C 99.83 149.56 142.06 149.70 150.00 117.00
C 149.35 115.85 148.26 116.02 147.00 116.00
C 132.32 117.52 114.91 135.34 103.00 115.00
C 101.29 123.26 93.10 126.56 86.00 129.00
C 88.58 133.64 98.34 131.18 96.00 139.00
C 85.93 139.61 75.95 135.02 72.00 126.00
C 65.04 136.98 50.49 125.62 61.23 120.23 C 71.98 114.84 70.00 105.82 79.00 104.00
C 81.19 105.01 81.40 106.58 81.00 108.00
C 81.01 109.71 75.56 115.69 78.00 119.00 C 80.44 122.31 79.52 127.45 84.00 126.00
C 85.52 125.35 87.34 122.02 89.00 121.00
C 92.14 119.07 99.07 118.99 98.00 115.00
C 97.73 114.27 93.71 110.62 93.00 110.00
C 85.89 104.71 78.62 99.10 71.00 95.00
C 70.80 85.69 78.98 80.12 88.07 79.07 C 97.17 78.02 108.65 76.95 100.70 67.30 C 92.74 57.66 96.61 50.11 98.00 40.00
C 104.54 51.05 103.25 82.68 125.00 71.00
C 119.97 59.00 109.25 48.83 109.00 35.00
C 108.29 30.60 107.01 26.90 110.00 23.00
C 112.64 19.55 112.33 20.42 113.00 22.00
M 92.00 66.00 
C 105.33 67.20 89.06 77.66 83.00 76.00
C 82.61 73.71 85.07 72.59 87.00 73.00
C 88.45 69.57 84.39 71.61 82.00 71.00
C 81.47 68.84 83.11 66.76 85.00 66.00
C 85.48 65.89 86.50 66.00 87.00 66.00
C 89.35 64.94 89.83 65.49 92.00 66.00
M 68.00 107.00 
C 69.42 110.56 64.38 118.27 60.26 113.74 C 56.14 109.22 66.90 108.09 63.00 103.00
C 68.65 96.14 78.35 104.77 68.00 107.00
M 93.00 112.00 
C 92.82 117.37 85.27 118.82 81.00 120.00
C 83.67 115.63 88.39 113.27 93.00 112.00
M 146.00 121.00 
C 143.67 124.24 137.08 128.37 133.00 128.00
C 136.30 124.80 141.29 119.32 146.00 121.00
M 114.00 128.00 
C 111.39 132.48 108.13 139.72 115.67 138.67 C 123.21 137.62 124.97 134.12 132.00 133.00
C 125.74 138.99 124.45 140.57 115.00 142.00 C 105.55 143.43 105.50 136.64 106.00 130.00
C 108.11 127.73 111.06 127.85 114.00 128.00
M 17.00 159.00 
C 17.16 159.71 16.77 160.87 17.00 162.00
C 17.10 162.48 16.99 163.50 17.00 164.00
C 17.07 166.59 17.78 168.46 18.00 171.00
C 19.94 170.38 21.13 172.20 23.00 172.00
C 23.19 171.92 23.00 171.00 23.00 171.00
C 22.96 169.67 23.03 168.33 23.00 167.00
C 26.99 167.40 25.83 173.00 26.00 176.00
C 25.97 176.50 26.09 177.51 26.00 178.00
C 25.93 178.39 26.89 179.54 27.00 180.00
C 28.61 179.13 31.58 180.87 33.00 179.00
C 31.09 176.13 29.62 170.33 35.00 170.00
C 36.10 172.25 36.31 175.96 40.00 175.00
C 36.83 166.78 44.64 172.23 42.00 178.00
C 39.94 179.48 41.75 179.92 41.00 181.00
C 38.45 184.68 38.42 181.78 38.00 180.00
C 37.48 179.75 37.09 178.51 36.00 179.00
C 32.07 181.69 32.94 183.61 27.00 182.00
C 23.99 181.19 20.90 180.79 19.00 178.00
C 19.94 177.43 20.82 176.85 22.00 177.00
C 21.86 176.90 20.81 175.17 21.00 175.00
C 15.86 175.17 10.90 167.10 13.00 164.00
C 13.23 163.67 14.83 161.02 15.00 161.00
C 14.27 160.49 13.56 159.78 13.00 159.00
C 12.20 157.89 11.64 156.70 12.00 155.00
C 13.75 156.30 17.44 155.74 17.00 159.00
M 64.00 176.00 
C 64.13 182.30 63.27 179.65 58.00 180.00
C 52.94 181.92 48.43 187.09 42.00 184.00
C 42.51 180.07 48.21 183.61 50.25 180.25 C 52.28 176.88 48.81 174.18 51.00 171.00
C 54.08 171.98 53.14 177.32 57.00 177.00
C 57.41 175.44 56.54 174.31 56.00 173.00
C 56.75 170.11 59.96 171.12 59.00 174.00
C 60.09 175.06 59.75 177.32 62.00 177.00
C 62.70 173.73 60.57 171.23 61.00 168.00
C 60.68 168.24 59.36 167.78 59.00 168.00
C 58.03 168.60 56.46 169.75 56.00 171.00
C 50.22 169.74 54.63 164.08 59.00 166.00
C 59.14 165.48 60.46 164.36 61.00 164.00
C 62.02 163.33 62.34 163.84 64.00 164.00
C 64.00 168.00 64.00 172.00 64.00 176.00
M 138.00 163.00 
C 139.33 167.05 135.02 167.89 132.00 168.00
C 131.18 164.51 135.17 162.80 138.00 163.00
M 68.00 173.00 
C 68.18 175.05 68.85 175.74 68.00 178.00
C 67.79 179.41 68.34 181.43 66.00 181.00
C 67.07 175.04 63.82 169.50 66.00 164.00
C 69.50 165.47 67.43 170.09 68.00 173.00
M 75.00 165.00 
C 86.99 160.08 76.68 175.01 75.00 165.00
M 109.00 181.00 
C 104.60 181.43 95.12 184.05 91.00 181.00
C 90.50 181.00 90.00 181.00 90.00 181.00
C 89.50 181.00 88.50 180.95 88.00 181.00
C 86.21 181.17 84.50 180.79 83.00 182.00
C 80.90 178.19 76.56 178.90 74.00 176.00
C 73.88 174.65 76.35 173.64 77.00 173.00
C 78.58 171.46 78.83 169.38 81.00 169.00
C 82.09 172.14 80.66 178.83 86.00 178.00
C 86.64 176.58 88.50 174.44 90.00 174.00
C 93.99 172.82 94.09 180.77 100.00 178.00
C 90.90 175.67 94.24 163.14 103.00 166.00
C 102.25 168.26 100.55 169.98 98.00 170.00
C 99.90 174.27 103.27 179.64 109.00 178.00
C 108.92 177.99 109.00 177.00 109.00 177.00
C 107.13 176.83 105.81 176.40 104.00 176.00
C 107.50 167.64 113.47 179.49 119.00 178.00
C 117.96 173.44 117.29 168.77 117.00 164.00
C 124.03 165.40 119.41 175.15 121.00 181.00
C 117.00 181.00 113.00 181.00 109.00 181.00
M 123.00 181.00 
C 123.03 175.45 120.38 169.37 123.00 164.00
C 125.90 167.88 126.56 178.30 123.00 181.00
M 174.00 168.00 
C 176.02 168.30 176.91 169.93 179.00 170.00
C 180.27 168.38 181.37 162.29 184.00 165.00
C 186.30 167.30 184.85 170.18 183.00 172.00
C 178.91 176.01 172.09 184.00 166.00 181.00
C 173.72 180.45 172.02 174.63 173.00 169.00
C 172.01 169.10 170.99 168.92 170.00 169.00
C 169.79 166.58 170.92 163.21 174.00 164.00
C 174.00 165.33 174.00 166.67 174.00 168.00
M 150.00 173.00 
C 151.55 171.80 151.57 171.49 153.00 172.00
C 154.31 172.47 153.84 173.89 154.00 175.00
C 156.54 176.14 155.78 169.84 158.00 173.00
C 159.10 173.16 160.84 173.71 162.00 174.00
C 162.10 167.06 169.69 171.61 167.00 177.00
C 154.97 178.74 142.24 182.04 131.00 177.00
C 131.58 173.10 134.89 169.62 138.00 168.00
C 137.33 170.94 139.09 173.18 139.00 176.00
C 142.29 177.21 142.78 174.19 145.00 173.00
C 145.93 177.08 149.03 176.08 150.00 173.00 Z"/>
</g>
<g fill="None" fill-opacity="0.0" stroke="#E4D9B0" stroke-opacity="0.46" stroke-width="0.3"><path d="
M 110.00 23.00 
C 110.68 22.04 113.44 21.62 113.00 22.00
C 112.33 20.42 112.64 19.55 110.00 23.00 Z"/>
</g>
<g fill="None" fill-opacity="0.0" stroke="#BF9C35" stroke-opacity="0.91" stroke-width="0.3"><path d="
M 110.00 23.00 
C 108.01 25.80 108.82 31.64 109.00 35.00
C 109.25 48.83 119.97 59.00 125.00 71.00
C 103.25 82.68 104.54 51.05 98.00 40.00
C 96.61 50.11 92.74 57.66 100.70 67.30 C 108.65 76.95 97.17 78.02 88.07 79.07 C 78.98 80.12 70.80 85.69 71.00 95.00
C 78.62 99.10 85.89 104.71 93.00 110.00
C 94.59 111.18 97.46 112.98 98.00 115.00
C 99.07 118.99 92.14 119.07 89.00 121.00
C 87.19 122.31 86.37 125.23 84.00 126.00
C 79.52 127.45 80.44 122.31 78.00 119.00 C 75.56 115.69 81.01 109.71 81.00 108.00
C 81.00 107.98 78.82 103.85 79.00 104.00
C 70.00 105.82 71.98 114.84 61.23 120.23 C 50.49 125.62 65.04 136.98 72.00 126.00
C 75.95 135.02 85.93 139.61 96.00 139.00
C 98.34 131.18 88.58 133.64 86.00 129.00
C 93.10 126.56 101.29 123.26 103.00 115.00
C 114.91 135.34 132.32 117.52 147.00 116.00
C 150.04 115.69 149.78 114.18 150.00 117.00
C 142.06 149.70 99.83 149.56 74.00 141.00
C 92.36 152.50 121.62 154.67 140.00 141.00
C 141.50 139.69 143.68 137.43 145.00 136.00
C 147.34 130.24 151.66 130.33 152.02 123.02 C 152.39 115.71 156.03 115.44 162.75 113.75 C 169.46 112.06 156.61 106.06 154.00 108.00
C 153.74 93.71 142.42 83.51 136.00 72.00
C 139.11 70.86 142.24 69.06 145.00 67.00
C 147.82 64.54 151.59 60.77 154.00 58.00
C 155.80 55.57 157.35 52.92 158.00 50.00
C 158.35 49.78 156.50 49.19 156.00 50.00
C 156.00 50.00 156.20 50.60 156.00 51.00
C 154.50 54.06 150.62 57.06 148.00 59.00
C 143.06 62.67 133.62 71.41 129.25 64.75 C 124.89 58.08 121.83 52.19 117.92 45.08 C 114.02 37.97 116.20 29.51 113.00 22.00
C 113.44 21.62 110.68 22.04 110.00 23.00
M 138.00 108.00 
C 132.51 107.79 131.99 108.31 131.00 103.00
C 129.25 93.58 124.47 86.39 117.00 80.00
C 125.05 72.61 132.95 77.98 136.92 86.08 C 140.88 94.18 147.43 99.09 149.00 108.00
C 145.33 108.00 141.67 108.00 138.00 108.00
M 117.00 90.00 
C 118.72 91.72 120.58 93.01 122.00 95.00
C 124.12 97.97 126.80 101.26 127.00 105.00
C 121.49 105.52 110.63 104.84 112.00 113.00
C 118.80 114.01 127.51 110.79 133.00 115.00
C 122.44 122.68 111.61 116.28 104.25 107.75 C 96.89 99.22 84.62 97.64 77.00 90.00
C 87.60 85.59 98.96 83.94 110.00 81.00
C 111.09 84.79 115.13 86.73 117.00 90.00
M 71.00 118.00 
C 72.27 122.34 67.63 124.58 64.00 124.00
C 64.31 120.68 68.27 118.86 71.00 118.00 Z"/>
</g>
<g fill="None" fill-opacity="0.0" stroke="#DDCE98" stroke-opacity="0.67" stroke-width="0.3"><path d="
M 109.00 35.00 
C 108.82 31.64 108.01 25.80 110.00 23.00
C 107.01 26.90 108.29 30.60 109.00 35.00 Z"/>
</g>
<g fill="None" fill-opacity="0.0" stroke="#E7E0BE" stroke-opacity="0.50" stroke-width="0.3"><path d="
M 156.00 50.00 
C 156.50 49.19 158.35 49.78 158.00 50.00
C 159.47 49.73 158.89 48.00 159.00 47.00
C 157.74 47.46 156.54 48.74 156.00 50.00 Z"/>
</g>
<g fill="None" fill-opacity="0.0" stroke="#E2D5A7" stroke-opacity="0.55" stroke-width="0.3"><path d="
M 148.00 59.00 
C 150.62 57.06 154.50 54.06 156.00 51.00
C 152.90 53.17 150.80 56.56 148.00 59.00 Z"/>
</g>
<g fill="None" fill-opacity="0.0" stroke="#DFD2A1" stroke-opacity="0.56" stroke-width="0.3"><path d="
M 145.00 67.00 
C 148.28 64.56 151.52 61.33 154.00 58.00
C 151.59 60.77 147.82 64.54 145.00 67.00 Z"/>
</g>
<g fill="None" fill-opacity="0.0" stroke="#E4D7AF" stroke-opacity="0.25" stroke-width="0.3"><path d="
M 87.00 66.00 
C 88.64 66.00 90.36 65.85 92.00 66.00
C 89.83 65.49 89.35 64.94 87.00 66.00 Z"/>
</g>
<g fill="None" fill-opacity="0.0" stroke="#E0D1A0" stroke-opacity="0.45" stroke-width="0.3"><path d="
M 87.00 73.00 
C 90.05 69.73 86.30 70.17 83.00 70.00
C 82.45 68.18 84.75 67.53 85.00 66.00
C 83.11 66.76 81.47 68.84 82.00 71.00
C 84.39 71.61 88.45 69.57 87.00 73.00 Z"/>
</g>
<g fill="None" fill-opacity="0.0" stroke="#C19E39" stroke-opacity="0.91" stroke-width="0.3"><path d="
M 87.00 73.00 
C 85.07 72.59 82.61 73.71 83.00 76.00
C 89.06 77.66 105.33 67.20 92.00 66.00
C 90.36 65.85 88.64 66.00 87.00 66.00
C 86.50 66.00 85.48 65.89 85.00 66.00
C 84.75 67.53 82.45 68.18 83.00 70.00
C 86.30 70.17 90.05 69.73 87.00 73.00 Z"/>
</g>
<g fill="None" fill-opacity="0.0" stroke="#000000" stroke-opacity="0.00" stroke-width="0.3"><path d="
M 131.00 103.00 
C 131.28 103.93 132.76 105.44 132.00 107.00
C 133.88 107.47 136.93 105.94 138.00 108.00
C 141.67 108.00 145.33 108.00 149.00 108.00
C 147.43 99.09 140.88 94.18 136.92 86.08 C 132.95 77.98 125.05 72.61 117.00 80.00
C 124.47 86.39 129.25 93.58 131.00 103.00 Z"/>
</g>
<g fill="None" fill-opacity="0.0" stroke="#000000" stroke-opacity="0.00" stroke-width="0.3"><path d="
M 122.00 95.00 
C 120.60 93.32 118.44 91.68 117.00 90.00
C 115.13 86.73 111.09 84.79 110.00 81.00
C 98.96 83.94 87.60 85.59 77.00 90.00
C 84.62 97.64 96.89 99.22 104.25 107.75 C 111.61 116.28 122.44 122.68 133.00 115.00
C 127.51 110.79 118.80 114.01 112.00 113.00
C 110.63 104.84 121.49 105.52 127.00 105.00
C 126.80 101.26 124.12 97.97 122.00 95.00
M 113.00 93.00 
C 107.15 92.42 107.45 99.37 106.00 103.00
C 103.54 99.34 98.51 99.32 95.77 95.23 C 93.03 91.14 104.52 92.70 106.00 96.00
C 104.93 91.85 113.73 85.51 113.00 93.00 Z"/>
</g>
<g fill="None" fill-opacity="0.0" stroke="#C7A84E" stroke-opacity="0.85" stroke-width="0.3"><path d="
M 113.00 93.00 
C 113.73 85.51 104.93 91.85 106.00 96.00
C 104.52 92.70 93.03 91.14 95.77 95.23 C 98.51 99.32 103.54 99.34 106.00 103.00
C 107.45 99.37 107.15 92.42 113.00 93.00 Z"/>
</g>
<g fill="None" fill-opacity="0.0" stroke="#DFD2A0" stroke-opacity="0.37" stroke-width="0.3"><path d="
M 122.00 95.00 
C 120.58 93.01 118.72 91.72 117.00 90.00
C 118.44 91.68 120.60 93.32 122.00 95.00 Z"/>
</g>
<g fill="None" fill-opacity="0.0" stroke="#C3A244" stroke-opacity="0.86" stroke-width="0.3"><path d="
M 68.00 107.00 
C 78.35 104.77 68.65 96.14 63.00 103.00
C 66.90 108.09 56.14 109.22 60.26 113.74 C 64.38 118.27 69.42 110.56 68.00 107.00 Z"/>
</g>
<g fill="None" fill-opacity="0.0" stroke="#E2D6A7" stroke-opacity="0.20" stroke-width="0.3"><path d="
M 138.00 108.00 
C 136.93 105.94 133.88 107.47 132.00 107.00
C 132.76 105.44 131.28 103.93 131.00 103.00
C 131.99 108.31 132.51 107.79 138.00 108.00 Z"/>
</g>
<g fill="None" fill-opacity="0.0" stroke="#DED09C" stroke-opacity="0.48" stroke-width="0.3"><path d="
M 81.00 108.00 
C 81.40 106.58 81.19 105.01 79.00 104.00
C 78.82 103.85 81.00 107.98 81.00 108.00 Z"/>
</g>
<g fill="None" fill-opacity="0.0" stroke="#D9C88C" stroke-opacity="0.45" stroke-width="0.3"><path d="
M 98.00 115.00 
C 97.46 112.98 94.59 111.18 93.00 110.00
C 93.71 110.62 97.73 114.27 98.00 115.00 Z"/>
</g>
<g fill="None" fill-opacity="0.0" stroke="#D1B76D" stroke-opacity="0.73" stroke-width="0.3"><path d="
M 93.00 112.00 
C 88.39 113.27 83.67 115.63 81.00 120.00
C 85.27 118.82 92.82 117.37 93.00 112.00 Z"/>
</g>
<g fill="None" fill-opacity="0.0" stroke="#E5DCB5" stroke-opacity="0.29" stroke-width="0.3"><path d="
M 147.00 116.00 
C 148.26 116.02 149.35 115.85 150.00 117.00
C 149.78 114.18 150.04 115.69 147.00 116.00 Z"/>
</g>
<g fill="None" fill-opacity="0.0" stroke="#000000" stroke-opacity="0.00" stroke-width="0.3"><path d="
M 71.00 118.00 
C 68.27 118.86 64.31 120.68 64.00 124.00
C 67.63 124.58 72.27 122.34 71.00 118.00 Z"/>
</g>
<g fill="None" fill-opacity="0.0" stroke="#D2B971" stroke-opacity="0.70" stroke-width="0.3"><path d="
M 146.00 121.00 
C 141.29 119.32 136.30 124.80 133.00 128.00
C 137.08 128.37 143.67 124.24 146.00 121.00 Z"/>
</g>
<g fill="None" fill-opacity="0.0" stroke="#DFD09E" stroke-opacity="0.53" stroke-width="0.3"><path d="
M 84.00 126.00 
C 86.37 125.23 87.19 122.31 89.00 121.00
C 87.34 122.02 85.52 125.35 84.00 126.00 Z"/>
</g>
<g fill="None" fill-opacity="0.0" stroke="#C8A952" stroke-opacity="0.83" stroke-width="0.3"><path d="
M 114.00 128.00 
C 111.06 127.85 108.11 127.73 106.00 130.00
C 105.50 136.64 105.55 143.43 115.00 142.00 C 124.45 140.57 125.74 138.99 132.00 133.00
C 124.97 134.12 123.21 137.62 115.67 138.67 C 108.13 139.72 111.39 132.48 114.00 128.00 Z"/>
</g>
<g fill="None" fill-opacity="0.0" stroke="#E4D7AD" stroke-opacity="0.24" stroke-width="0.3"><path d="
M 140.00 141.00 
C 141.96 139.54 143.46 137.95 145.00 136.00
C 143.68 137.43 141.50 139.69 140.00 141.00 Z"/>
</g>
<g fill="None" fill-opacity="0.0" stroke="#B3A980" stroke-opacity="0.77" stroke-width="0.3"><path d="
M 13.00 159.00 
C 13.61 159.44 17.15 159.17 17.00 159.00
C 17.44 155.74 13.75 156.30 12.00 155.00
C 11.64 156.70 12.20 157.89 13.00 159.00 Z"/>
</g>
<g fill="None" fill-opacity="0.0" stroke="#E6E4D7" stroke-opacity="0.16" stroke-width="0.3"><path d="
M 15.00 161.00 
C 15.10 161.07 16.99 162.15 17.00 162.00
C 16.77 160.87 17.16 159.71 17.00 159.00
C 17.15 159.17 13.61 159.44 13.00 159.00
C 13.56 159.78 14.27 160.49 15.00 161.00 Z"/>
</g>
<g fill="None" fill-opacity="0.0" stroke="#CFC8AF" stroke-opacity="0.45" stroke-width="0.3"><path d="
M 13.00 164.00 
C 15.14 162.04 15.10 162.90 17.00 164.00
C 16.99 163.50 17.10 162.48 17.00 162.00
C 16.99 162.15 15.10 161.07 15.00 161.00
C 14.83 161.02 13.23 163.67 13.00 164.00 Z"/>
</g>
<g fill="None" fill-opacity="0.0" stroke="#AFA57A" stroke-opacity="0.72" stroke-width="0.3"><path d="
M 13.00 164.00 
C 10.90 167.10 15.86 175.17 21.00 175.00
C 21.50 174.98 22.00 175.00 22.00 175.00
C 21.42 174.69 20.32 173.72 20.00 173.00
C 21.00 172.89 22.73 173.47 23.00 172.00
C 21.13 172.20 19.94 170.38 18.00 171.00
C 17.78 168.46 17.07 166.59 17.00 164.00
C 15.10 162.90 15.14 162.04 13.00 164.00 Z"/>
</g>
<g fill="None" fill-opacity="0.0" stroke="#B6AC85" stroke-opacity="0.69" stroke-width="0.3"><path d="
M 61.00 164.00 
C 60.64 164.95 60.96 166.98 61.00 168.00
C 60.57 171.23 62.70 173.73 62.00 177.00
C 59.75 177.32 60.09 175.06 59.00 174.00
C 58.90 175.32 58.50 176.66 57.00 177.00
C 53.14 177.32 54.08 171.98 51.00 171.00
C 48.81 174.18 52.28 176.88 50.25 180.25 C 48.21 183.61 42.51 180.07 42.00 184.00
C 48.43 187.09 52.94 181.92 58.00 180.00
C 60.07 179.22 63.21 178.14 64.00 176.00
C 64.00 172.00 64.00 168.00 64.00 164.00
C 62.34 163.84 62.02 163.33 61.00 164.00 Z"/>
</g>
<g fill="None" fill-opacity="0.0" stroke="#BDB491" stroke-opacity="0.76" stroke-width="0.3"><path d="
M 138.00 163.00 
C 135.17 162.80 131.18 164.51 132.00 168.00
C 135.02 167.89 139.33 167.05 138.00 163.00 Z"/>
</g>
<g fill="None" fill-opacity="0.0" stroke="#DEDBC7" stroke-opacity="0.27" stroke-width="0.3"><path d="
M 59.00 166.00 
C 58.87 166.47 58.75 167.75 59.00 168.00
C 59.36 167.78 60.68 168.24 61.00 168.00
C 60.96 166.98 60.64 164.95 61.00 164.00
C 60.46 164.36 59.14 165.48 59.00 166.00 Z"/>
</g>
<g fill="None" fill-opacity="0.0" stroke="#B0A77D" stroke-opacity="0.75" stroke-width="0.3"><path d="
M 68.00 178.00 
C 68.23 176.41 68.00 174.61 68.00 173.00
C 67.43 170.09 69.50 165.47 66.00 164.00
C 63.82 169.50 67.07 175.04 66.00 181.00
C 68.34 181.43 67.79 179.41 68.00 178.00 Z"/>
</g>
<g fill="None" fill-opacity="0.0" stroke="#C0B795" stroke-opacity="0.72" stroke-width="0.3"><path d="
M 75.00 165.00 
C 76.68 175.01 86.99 160.08 75.00 165.00 Z"/>
</g>
<g fill="None" fill-opacity="0.0" stroke="#BBB089" stroke-opacity="0.78" stroke-width="0.3"><path d="
M 109.00 177.00 
C 109.15 177.26 109.23 175.38 108.00 175.00
C 110.80 174.51 113.83 177.31 114.00 180.00
C 110.67 180.00 107.33 180.00 104.00 180.00
C 105.77 177.97 109.48 179.47 112.00 179.00
C 111.74 177.61 109.95 178.22 109.00 178.00
C 103.27 179.64 99.90 174.27 98.00 170.00
C 100.55 169.98 102.25 168.26 103.00 166.00
C 94.24 163.14 90.90 175.67 100.00 178.00
C 94.09 180.77 93.99 172.82 90.00 174.00
C 86.84 176.65 93.20 178.07 90.00 181.00
C 90.00 181.00 90.50 181.00 91.00 181.00
C 97.00 181.00 103.00 181.00 109.00 181.00
C 113.00 181.00 117.00 181.00 121.00 181.00
C 119.41 175.15 124.03 165.40 117.00 164.00
C 117.29 168.77 117.96 173.44 119.00 178.00
C 113.47 179.49 107.50 167.64 104.00 176.00
C 105.81 176.40 107.13 176.83 109.00 177.00 Z"/>
</g>
<g fill="None" fill-opacity="0.0" stroke="#B3AA82" stroke-opacity="0.72" stroke-width="0.3"><path d="
M 123.00 181.00 
C 126.56 178.30 125.90 167.88 123.00 164.00
C 120.38 169.37 123.03 175.45 123.00 181.00 Z"/>
</g>
<g fill="None" fill-opacity="0.0" stroke="#B8B18D" stroke-opacity="0.56" stroke-width="0.3"><path d="
M 173.00 169.00 
C 173.21 168.74 173.89 167.98 174.00 168.00
C 174.00 166.67 174.00 165.33 174.00 164.00
C 170.92 163.21 169.79 166.58 170.00 169.00
C 170.99 168.92 172.01 169.10 173.00 169.00 Z"/>
</g>
<g fill="None" fill-opacity="0.0" stroke="#B9AF88" stroke-opacity="0.85" stroke-width="0.3"><path d="
M 174.00 168.00 
C 173.89 167.98 173.21 168.74 173.00 169.00
C 172.02 174.63 173.72 180.45 166.00 181.00
C 172.09 184.00 178.91 176.01 183.00 172.00
C 183.96 170.68 184.84 166.54 184.00 165.00
C 181.37 162.29 180.27 168.38 179.00 170.00
C 176.91 169.93 176.02 168.30 174.00 168.00 Z"/>
</g>
<g fill="None" fill-opacity="0.0" stroke="#D1CDB6" stroke-opacity="0.46" stroke-width="0.3"><path d="
M 183.00 172.00 
C 184.85 170.18 186.30 167.30 184.00 165.00
C 184.84 166.54 183.96 170.68 183.00 172.00 Z"/>
</g>
<g fill="None" fill-opacity="0.0" stroke="#BFB793" stroke-opacity="0.68" stroke-width="0.3"><path d="
M 59.00 168.00 
C 58.75 167.75 58.87 166.47 59.00 166.00
C 54.63 164.08 50.22 169.74 56.00 171.00
C 56.46 169.75 58.03 168.60 59.00 168.00 Z"/>
</g>
<g fill="None" fill-opacity="0.0" stroke="#AAA073" stroke-opacity="0.71" stroke-width="0.3"><path d="
M 23.00 171.00 
C 24.44 172.31 25.55 174.72 23.00 175.00
C 23.55 175.51 25.82 175.75 26.00 176.00
C 25.83 173.00 26.99 167.40 23.00 167.00
C 23.03 168.33 22.96 169.67 23.00 171.00 Z"/>
</g>
<g fill="None" fill-opacity="0.0" stroke="#B8AE87" stroke-opacity="0.80" stroke-width="0.3"><path d="
M 162.00 174.00 
C 162.87 174.22 165.22 174.56 166.00 176.00
C 162.27 175.99 158.92 177.66 155.00 177.00
C 155.76 175.19 160.10 175.55 158.00 173.00
C 155.78 169.84 156.54 176.14 154.00 175.00
C 153.84 173.89 154.31 172.47 153.00 172.00
C 152.51 171.46 151.49 174.70 152.00 175.00
C 150.74 174.92 151.44 172.94 150.00 173.00
C 149.03 176.08 145.93 177.08 145.00 173.00
C 142.78 174.19 142.29 177.21 139.00 176.00
C 139.09 173.18 137.33 170.94 138.00 168.00
C 134.89 169.62 131.58 173.10 131.00 177.00
C 142.24 182.04 154.97 178.74 167.00 177.00
C 169.69 171.61 162.10 167.06 162.00 174.00 Z"/>
</g>
<g fill="None" fill-opacity="0.0" stroke="#AFA57B" stroke-opacity="0.84" stroke-width="0.3"><path d="
M 77.00 173.00 
C 76.29 175.51 77.17 175.25 79.00 177.00
C 77.06 177.62 75.87 175.80 74.00 176.00
C 76.56 178.90 80.90 178.19 83.00 182.00
C 84.50 180.79 86.21 181.17 88.00 181.00
C 87.41 180.84 86.21 179.22 85.00 180.00
C 84.98 179.03 88.01 178.78 86.00 178.00
C 80.66 178.83 82.09 172.14 81.00 169.00
C 78.83 169.38 78.58 171.46 77.00 173.00 Z"/>
</g>
<g fill="None" fill-opacity="0.0" stroke="#B3AA80" stroke-opacity="0.74" stroke-width="0.3"><path d="
M 27.00 180.00 
C 27.05 180.20 26.04 181.03 27.00 182.00
C 32.94 183.61 32.07 181.69 36.00 179.00
C 37.20 178.18 38.21 177.77 40.00 178.00
C 39.00 177.68 36.78 176.92 36.00 176.00
C 37.78 176.25 41.36 174.97 41.00 178.00
C 41.50 178.00 42.00 178.00 42.00 178.00
C 44.64 172.23 36.83 166.78 40.00 175.00
C 36.31 175.96 36.10 172.25 35.00 170.00
C 29.62 170.33 31.09 176.13 33.00 179.00
C 31.58 180.87 28.61 179.13 27.00 180.00 Z"/>
</g>
<g fill="None" fill-opacity="0.0" stroke="#DED0B3" stroke-opacity="0.73" stroke-width="0.3"><path d="
M 23.00 172.00 
C 22.73 173.47 21.00 172.89 20.00 173.00
C 20.32 173.72 21.42 174.69 22.00 175.00
C 22.50 175.00 23.00 175.00 23.00 175.00
C 25.55 174.72 24.44 172.31 23.00 171.00
C 23.00 171.00 23.19 171.92 23.00 172.00 Z"/>
</g>
<g fill="None" fill-opacity="0.0" stroke="#BEB793" stroke-opacity="0.44" stroke-width="0.3"><path d="
M 57.00 177.00 
C 58.50 176.66 58.90 175.32 59.00 174.00
C 59.96 171.12 56.75 170.11 56.00 173.00
C 56.54 174.31 57.41 175.44 57.00 177.00 Z"/>
</g>
<g fill="None" fill-opacity="0.0" stroke="#DBD7C6" stroke-opacity="0.26" stroke-width="0.3"><path d="
M 150.00 173.00 
C 151.44 172.94 150.74 174.92 152.00 175.00
C 151.49 174.70 152.51 171.46 153.00 172.00
C 151.57 171.49 151.55 171.80 150.00 173.00 Z"/>
</g>
<g fill="None" fill-opacity="0.0" stroke="#CDCAB3" stroke-opacity="0.19" stroke-width="0.3"><path d="
M 68.00 178.00 
C 68.85 175.74 68.18 175.05 68.00 173.00
C 68.00 174.61 68.23 176.41 68.00 178.00 Z"/>
</g>
<g fill="None" fill-opacity="0.0" stroke="#DED2B9" stroke-opacity="0.65" stroke-width="0.3"><path d="
M 74.00 176.00 
C 75.87 175.80 77.06 177.62 79.00 177.00
C 77.17 175.25 76.29 175.51 77.00 173.00
C 76.35 173.64 73.88 174.65 74.00 176.00 Z"/>
</g>
<g fill="None" fill-opacity="0.0" stroke="#DFCFB2" stroke-opacity="0.81" stroke-width="0.3"><path d="
M 162.00 174.00 
C 160.84 173.71 159.10 173.16 158.00 173.00
C 160.10 175.55 155.76 175.19 155.00 177.00
C 158.92 177.66 162.27 175.99 166.00 176.00
C 165.22 174.56 162.87 174.22 162.00 174.00 Z"/>
</g>
<g fill="None" fill-opacity="0.0" stroke="#DCD0B3" stroke-opacity="0.65" stroke-width="0.3"><path d="
M 86.00 178.00 
C 88.01 178.78 84.98 179.03 85.00 180.00
C 86.21 179.22 87.41 180.84 88.00 181.00
C 88.50 180.95 89.50 181.00 90.00 181.00
C 93.20 178.07 86.84 176.65 90.00 174.00
C 88.50 174.44 86.64 176.58 86.00 178.00 Z"/>
</g>
<g fill="None" fill-opacity="0.0" stroke="#E6E2D6" stroke-opacity="0.19" stroke-width="0.3"><path d="
M 22.00 177.00 
C 22.93 177.65 24.91 176.95 26.00 178.00
C 26.09 177.51 25.97 176.50 26.00 176.00
C 25.82 175.75 23.55 175.51 23.00 175.00
C 23.00 175.00 22.50 175.00 22.00 175.00
C 22.00 175.00 21.50 174.98 21.00 175.00
C 20.81 175.17 21.86 176.90 22.00 177.00 Z"/>
</g>
<g fill="None" fill-opacity="0.0" stroke="#E4D3B3" stroke-opacity="0.82" stroke-width="0.3"><path d="
M 109.00 177.00 
C 109.00 177.00 108.92 177.99 109.00 178.00
C 109.95 178.22 111.74 177.61 112.00 179.00
C 109.48 179.47 105.77 177.97 104.00 180.00
C 107.33 180.00 110.67 180.00 114.00 180.00
C 113.83 177.31 110.80 174.51 108.00 175.00
C 109.23 175.38 109.15 177.26 109.00 177.00 Z"/>
</g>
<g fill="None" fill-opacity="0.0" stroke="#E6D4B6" stroke-opacity="0.81" stroke-width="0.3"><path d="
M 40.00 178.00 
C 40.49 178.06 41.00 178.00 41.00 178.00
C 41.36 174.97 37.78 176.25 36.00 176.00
C 36.78 176.92 39.00 177.68 40.00 178.00 Z"/>
</g>
<g fill="None" fill-opacity="0.0" stroke="#CDC3A4" stroke-opacity="0.43" stroke-width="0.3"><path d="
M 58.00 180.00 
C 63.27 179.65 64.13 182.30 64.00 176.00
C 63.21 178.14 60.07 179.22 58.00 180.00 Z"/>
</g>
<g fill="None" fill-opacity="0.0" stroke="#C0B896" stroke-opacity="0.61" stroke-width="0.3"><path d="
M 27.00 182.00 
C 26.04 181.03 27.05 180.20 27.00 180.00
C 26.89 179.54 25.93 178.39 26.00 178.00
C 24.91 176.95 22.93 177.65 22.00 177.00
C 20.82 176.85 19.94 177.43 19.00 178.00
C 20.90 180.79 23.99 181.19 27.00 182.00 Z"/>
</g>
<g fill="None" fill-opacity="0.0" stroke="#DCD7C4" stroke-opacity="0.27" stroke-width="0.3"><path d="
M 36.00 179.00 
C 37.09 178.51 37.48 179.75 38.00 180.00
C 38.18 180.09 40.77 181.03 41.00 181.00
C 41.75 179.92 39.94 179.48 42.00 178.00
C 42.00 178.00 41.50 178.00 41.00 178.00
C 41.00 178.00 40.49 178.06 40.00 178.00
C 38.21 177.77 37.20 178.18 36.00 179.00 Z"/>
</g>
<g fill="None" fill-opacity="0.0" stroke="#BBB28B" stroke-opacity="0.64" stroke-width="0.3"><path d="
M 41.00 181.00 
C 40.77 181.03 38.18 180.09 38.00 180.00
C 38.42 181.78 38.45 184.68 41.00 181.00 Z"/>
</g>
<g fill="None" fill-opacity="0.0" stroke="#C6C1A4" stroke-opacity="0.28" stroke-width="0.3"><path d="
M 109.00 181.00 
C 103.00 181.00 97.00 181.00 91.00 181.00
C 95.12 184.05 104.60 181.43 109.00 181.00 Z"/>
</g>
<g fill="#000000" fill-opacity="0.00" stroke="None">
<path d="
M 0.00 230.00 
L 209.00 230.00
L 209.00 0.00
L 0.00 0.00
L 0.00 230.00
M 113.00 22.00 
C 116.20 29.51 114.02 37.97 117.92 45.08 C 121.83 52.19 124.89 58.08 129.25 64.75 C 133.62 71.41 143.06 62.67 148.00 59.00
C 150.80 56.56 152.90 53.17 156.00 51.00
C 156.20 50.60 156.00 50.00 156.00 50.00
C 156.54 48.74 157.74 47.46 159.00 47.00
C 158.89 48.00 159.47 49.73 158.00 50.00
C 157.35 52.92 155.80 55.57 154.00 58.00
C 151.52 61.33 148.28 64.56 145.00 67.00
C 142.24 69.06 139.11 70.86 136.00 72.00
C 142.42 83.51 153.74 93.71 154.00 108.00
C 156.61 106.06 169.46 112.06 162.75 113.75 C 156.03 115.44 152.39 115.71 152.02 123.02 C 151.66 130.33 147.34 130.24 145.00 136.00
C 143.46 137.95 141.96 139.54 140.00 141.00
C 121.62 154.67 92.36 152.50 74.00 141.00
C 99.83 149.56 142.06 149.70 150.00 117.00
C 149.35 115.85 148.26 116.02 147.00 116.00
C 132.32 117.52 114.91 135.34 103.00 115.00
C 101.29 123.26 93.10 126.56 86.00 129.00
C 88.58 133.64 98.34 131.18 96.00 139.00
C 85.93 139.61 75.95 135.02 72.00 126.00
C 65.04 136.98 50.49 125.62 61.23 120.23 C 71.98 114.84 70.00 105.82 79.00 104.00
C 81.19 105.01 81.40 106.58 81.00 108.00
C 81.01 109.71 75.56 115.69 78.00 119.00 C 80.44 122.31 79.52 127.45 84.00 126.00
C 85.52 125.35 87.34 122.02 89.00 121.00
C 92.14 119.07 99.07 118.99 98.00 115.00
C 97.73 114.27 93.71 110.62 93.00 110.00
C 85.89 104.71 78.62 99.10 71.00 95.00
C 70.80 85.69 78.98 80.12 88.07 79.07 C 97.17 78.02 108.65 76.95 100.70 67.30 C 92.74 57.66 96.61 50.11 98.00 40.00
C 104.54 51.05 103.25 82.68 125.00 71.00
C 119.97 59.00 109.25 48.83 109.00 35.00
C 108.29 30.60 107.01 26.90 110.00 23.00
C 112.64 19.55 112.33 20.42 113.00 22.00
M 92.00 66.00 
C 105.33 67.20 89.06 77.66 83.00 76.00
C 82.61 73.71 85.07 72.59 87.00 73.00
C 88.45 69.57 84.39 71.61 82.00 71.00
C 81.47 68.84 83.11 66.76 85.00 66.00
C 85.48 65.89 86.50 66.00 87.00 66.00
C 89.35 64.94 89.83 65.49 92.00 66.00
M 68.00 107.00 
C 69.42 110.56 64.38 118.27 60.26 113.74 C 56.14 109.22 66.90 108.09 63.00 103.00
C 68.65 96.14 78.35 104.77 68.00 107.00
M 93.00 112.00 
C 92.82 117.37 85.27 118.82 81.00 120.00
C 83.67 115.63 88.39 113.27 93.00 112.00
M 146.00 121.00 
C 143.67 124.24 137.08 128.37 133.00 128.00
C 136.30 124.80 141.29 119.32 146.00 121.00
M 114.00 128.00 
C 111.39 132.48 108.13 139.72 115.67 138.67 C 123.21 137.62 124.97 134.12 132.00 133.00
C 125.74 138.99 124.45 140.57 115.00 142.00 C 105.55 143.43 105.50 136.64 106.00 130.00
C 108.11 127.73 111.06 127.85 114.00 128.00
M 17.00 159.00 
C 17.16 159.71 16.77 160.87 17.00 162.00
C 17.10 162.48 16.99 163.50 17.00 164.00
C 17.07 166.59 17.78 168.46 18.00 171.00
C 19.94 170.38 21.13 172.20 23.00 172.00
C 23.19 171.92 23.00 171.00 23.00 171.00
C 22.96 169.67 23.03 168.33 23.00 167.00
C 26.99 167.40 25.83 173.00 26.00 176.00
C 25.97 176.50 26.09 177.51 26.00 178.00
C 25.93 178.39 26.89 179.54 27.00 180.00
C 28.61 179.13 31.58 180.87 33.00 179.00
C 31.09 176.13 29.62 170.33 35.00 170.00
C 36.10 172.25 36.31 175.96 40.00 175.00
C 36.83 166.78 44.64 172.23 42.00 178.00
C 39.94 179.48 41.75 179.92 41.00 181.00
C 38.45 184.68 38.42 181.78 38.00 180.00
C 37.48 179.75 37.09 178.51 36.00 179.00
C 32.07 181.69 32.94 183.61 27.00 182.00
C 23.99 181.19 20.90 180.79 19.00 178.00
C 19.94 177.43 20.82 176.85 22.00 177.00
C 21.86 176.90 20.81 175.17 21.00 175.00
C 15.86 175.17 10.90 167.10 13.00 164.00
C 13.23 163.67 14.83 161.02 15.00 161.00
C 14.27 160.49 13.56 159.78 13.00 159.00
C 12.20 157.89 11.64 156.70 12.00 155.00
C 13.75 156.30 17.44 155.74 17.00 159.00
M 64.00 176.00 
C 64.13 182.30 63.27 179.65 58.00 180.00
C 52.94 181.92 48.43 187.09 42.00 184.00
C 42.51 180.07 48.21 183.61 50.25 180.25 C 52.28 176.88 48.81 174.18 51.00 171.00
C 54.08 171.98 53.14 177.32 57.00 177.00
C 57.41 175.44 56.54 174.31 56.00 173.00
C 56.75 170.11 59.96 171.12 59.00 174.00
C 60.09 175.06 59.75 177.32 62.00 177.00
C 62.70 173.73 60.57 171.23 61.00 168.00
C 60.68 168.24 59.36 167.78 59.00 168.00
C 58.03 168.60 56.46 169.75 56.00 171.00
C 50.22 169.74 54.63 164.08 59.00 166.00
C 59.14 165.48 60.46 164.36 61.00 164.00
C 62.02 163.33 62.34 163.84 64.00 164.00
C 64.00 168.00 64.00 172.00 64.00 176.00
M 138.00 163.00 
C 139.33 167.05 135.02 167.89 132.00 168.00
C 131.18 164.51 135.17 162.80 138.00 163.00
M 68.00 173.00 
C 68.18 175.05 68.85 175.74 68.00 178.00
C 67.79 179.41 68.34 181.43 66.00 181.00
C 67.07 175.04 63.82 169.50 66.00 164.00
C 69.50 165.47 67.43 170.09 68.00 173.00
M 75.00 165.00 
C 86.99 160.08 76.68 175.01 75.00 165.00
M 109.00 181.00 
C 104.60 181.43 95.12 184.05 91.00 181.00
C 90.50 181.00 90.00 181.00 90.00 181.00
C 89.50 181.00 88.50 180.95 88.00 181.00
C 86.21 181.17 84.50 180.79 83.00 182.00
C 80.90 178.19 76.56 178.90 74.00 176.00
C 73.88 174.65 76.35 173.64 77.00 173.00
C 78.58 171.46 78.83 169.38 81.00 169.00
C 82.09 172.14 80.66 178.83 86.00 178.00
C 86.64 176.58 88.50 174.44 90.00 174.00
C 93.99 172.82 94.09 180.77 100.00 178.00
C 90.90 175.67 94.24 163.14 103.00 166.00
C 102.25 168.26 100.55 169.98 98.00 170.00
C 99.90 174.27 103.27 179.64 109.00 178.00
C 108.92 177.99 109.00 177.00 109.00 177.00
C 107.13 176.83 105.81 176.40 104.00 176.00
C 107.50 167.64 113.47 179.49 119.00 178.00
C 117.96 173.44 117.29 168.77 117.00 164.00
C 124.03 165.40 119.41 175.15 121.00 181.00
C 117.00 181.00 113.00 181.00 109.00 181.00
M 123.00 181.00 
C 123.03 175.45 120.38 169.37 123.00 164.00
C 125.90 167.88 126.56 178.30 123.00 181.00
M 174.00 168.00 
C 176.02 168.30 176.91 169.93 179.00 170.00
C 180.27 168.38 181.37 162.29 184.00 165.00
C 186.30 167.30 184.85 170.18 183.00 172.00
C 178.91 176.01 172.09 184.00 166.00 181.00
C 173.72 180.45 172.02 174.63 173.00 169.00
C 172.01 169.10 170.99 168.92 170.00 169.00
C 169.79 166.58 170.92 163.21 174.00 164.00
C 174.00 165.33 174.00 166.67 174.00 168.00
M 150.00 173.00 
C 151.55 171.80 151.57 171.49 153.00 172.00
C 154.31 172.47 153.84 173.89 154.00 175.00
C 156.54 176.14 155.78 169.84 158.00 173.00
C 159.10 173.16 160.84 173.71 162.00 174.00
C 162.10 167.06 169.69 171.61 167.00 177.00
C 154.97 178.74 142.24 182.04 131.00 177.00
C 131.58 173.10 134.89 169.62 138.00 168.00
C 137.33 170.94 139.09 173.18 139.00 176.00
C 142.29 177.21 142.78 174.19 145.00 173.00
C 145.93 177.08 149.03 176.08 150.00 173.00 Z"/>
</g>
<g fill="#E4D9B0" fill-opacity="0.46" stroke="None">
<path d="
M 110.00 23.00 
C 110.68 22.04 113.44 21.62 113.00 22.00
C 112.33 20.42 112.64 19.55 110.00 23.00 Z"/>
</g>
<g fill="#BF9C35" fill-opacity="0.91" stroke="None">
<path d="
M 110.00 23.00 
C 108.01 25.80 108.82 31.64 109.00 35.00
C 109.25 48.83 119.97 59.00 125.00 71.00
C 103.25 82.68 104.54 51.05 98.00 40.00
C 96.61 50.11 92.74 57.66 100.70 67.30 C 108.65 76.95 97.17 78.02 88.07 79.07 C 78.98 80.12 70.80 85.69 71.00 95.00
C 78.62 99.10 85.89 104.71 93.00 110.00
C 94.59 111.18 97.46 112.98 98.00 115.00
C 99.07 118.99 92.14 119.07 89.00 121.00
C 87.19 122.31 86.37 125.23 84.00 126.00
C 79.52 127.45 80.44 122.31 78.00 119.00 C 75.56 115.69 81.01 109.71 81.00 108.00
C 81.00 107.98 78.82 103.85 79.00 104.00
C 70.00 105.82 71.98 114.84 61.23 120.23 C 50.49 125.62 65.04 136.98 72.00 126.00
C 75.95 135.02 85.93 139.61 96.00 139.00
C 98.34 131.18 88.58 133.64 86.00 129.00
C 93.10 126.56 101.29 123.26 103.00 115.00
C 114.91 135.34 132.32 117.52 147.00 116.00
C 150.04 115.69 149.78 114.18 150.00 117.00
C 142.06 149.70 99.83 149.56 74.00 141.00
C 92.36 152.50 121.62 154.67 140.00 141.00
C 141.50 139.69 143.68 137.43 145.00 136.00
C 147.34 130.24 151.66 130.33 152.02 123.02 C 152.39 115.71 156.03 115.44 162.75 113.75 C 169.46 112.06 156.61 106.06 154.00 108.00
C 153.74 93.71 142.42 83.51 136.00 72.00
C 139.11 70.86 142.24 69.06 145.00 67.00
C 147.82 64.54 151.59 60.77 154.00 58.00
C 155.80 55.57 157.35 52.92 158.00 50.00
C 158.35 49.78 156.50 49.19 156.00 50.00
C 156.00 50.00 156.20 50.60 156.00 51.00
C 154.50 54.06 150.62 57.06 148.00 59.00
C 143.06 62.67 133.62 71.41 129.25 64.75 C 124.89 58.08 121.83 52.19 117.92 45.08 C 114.02 37.97 116.20 29.51 113.00 22.00
C 113.44 21.62 110.68 22.04 110.00 23.00
M 138.00 108.00 
C 132.51 107.79 131.99 108.31 131.00 103.00
C 129.25 93.58 124.47 86.39 117.00 80.00
C 125.05 72.61 132.95 77.98 136.92 86.08 C 140.88 94.18 147.43 99.09 149.00 108.00
C 145.33 108.00 141.67 108.00 138.00 108.00
M 117.00 90.00 
C 118.72 91.72 120.58 93.01 122.00 95.00
C 124.12 97.97 126.80 101.26 127.00 105.00
C 121.49 105.52 110.63 104.84 112.00 113.00
C 118.80 114.01 127.51 110.79 133.00 115.00
C 122.44 122.68 111.61 116.28 104.25 107.75 C 96.89 99.22 84.62 97.64 77.00 90.00
C 87.60 85.59 98.96 83.94 110.00 81.00
C 111.09 84.79 115.13 86.73 117.00 90.00
M 71.00 118.00 
C 72.27 122.34 67.63 124.58 64.00 124.00
C 64.31 120.68 68.27 118.86 71.00 118.00 Z"/>
</g>
<g fill="#DDCE98" fill-opacity="0.67" stroke="None">
<path d="
M 109.00 35.00 
C 108.82 31.64 108.01 25.80 110.00 23.00
C 107.01 26.90 108.29 30.60 109.00 35.00 Z"/>
</g>
<g fill="#E7E0BE" fill-opacity="0.50" stroke="None">
<path d="
M 156.00 50.00 
C 156.50 49.19 158.35 49.78 158.00 50.00
C 159.47 49.73 158.89 48.00 159.00 47.00
C 157.74 47.46 156.54 48.74 156.00 50.00 Z"/>
</g>
<g fill="#E2D5A7" fill-opacity="0.55" stroke="None">
<path d="
M 148.00 59.00 
C 150.62 57.06 154.50 54.06 156.00 51.00
C 152.90 53.17 150.80 56.56 148.00 59.00 Z"/>
</g>
<g fill="#DFD2A1" fill-opacity="0.56" stroke="None">
<path d="
M 145.00 67.00 
C 148.28 64.56 151.52 61.33 154.00 58.00
C 151.59 60.77 147.82 64.54 145.00 67.00 Z"/>
</g>
<g fill="#E4D7AF" fill-opacity="0.25" stroke="None">
<path d="
M 87.00 66.00 
C 88.64 66.00 90.36 65.85 92.00 66.00
C 89.83 65.49 89.35 64.94 87.00 66.00 Z"/>
</g>
<g fill="#E0D1A0" fill-opacity="0.45" stroke="None">
<path d="
M 87.00 73.00 
C 90.05 69.73 86.30 70.17 83.00 70.00
C 82.45 68.18 84.75 67.53 85.00 66.00
C 83.11 66.76 81.47 68.84 82.00 71.00
C 84.39 71.61 88.45 69.57 87.00 73.00 Z"/>
</g>
<g fill="#C19E39" fill-opacity="0.91" stroke="None">
<path d="
M 87.00 73.00 
C 85.07 72.59 82.61 73.71 83.00 76.00
C 89.06 77.66 105.33 67.20 92.00 66.00
C 90.36 65.85 88.64 66.00 87.00 66.00
C 86.50 66.00 85.48 65.89 85.00 66.00
C 84.75 67.53 82.45 68.18 83.00 70.00
C 86.30 70.17 90.05 69.73 87.00 73.00 Z"/>
</g>
<g fill="#000000" fill-opacity="0.00" stroke="None">
<path d="
M 131.00 103.00 
C 131.28 103.93 132.76 105.44 132.00 107.00
C 133.88 107.47 136.93 105.94 138.00 108.00
C 141.67 108.00 145.33 108.00 149.00 108.00
C 147.43 99.09 140.88 94.18 136.92 86.08 C 132.95 77.98 125.05 72.61 117.00 80.00
C 124.47 86.39 129.25 93.58 131.00 103.00 Z"/>
</g>
<g fill="#000000" fill-opacity="0.00" stroke="None">
<path d="
M 122.00 95.00 
C 120.60 93.32 118.44 91.68 117.00 90.00
C 115.13 86.73 111.09 84.79 110.00 81.00
C 98.96 83.94 87.60 85.59 77.00 90.00
C 84.62 97.64 96.89 99.22 104.25 107.75 C 111.61 116.28 122.44 122.68 133.00 115.00
C 127.51 110.79 118.80 114.01 112.00 113.00
C 110.63 104.84 121.49 105.52 127.00 105.00
C 126.80 101.26 124.12 97.97 122.00 95.00
M 113.00 93.00 
C 107.15 92.42 107.45 99.37 106.00 103.00
C 103.54 99.34 98.51 99.32 95.77 95.23 C 93.03 91.14 104.52 92.70 106.00 96.00
C 104.93 91.85 113.73 85.51 113.00 93.00 Z"/>
</g>
<g fill="#C7A84E" fill-opacity="0.85" stroke="None">
<path d="
M 113.00 93.00 
C 113.73 85.51 104.93 91.85 106.00 96.00
C 104.52 92.70 93.03 91.14 95.77 95.23 C 98.51 99.32 103.54 99.34 106.00 103.00
C 107.45 99.37 107.15 92.42 113.00 93.00 Z"/>
</g>
<g fill="#DFD2A0" fill-opacity="0.37" stroke="None">
<path d="
M 122.00 95.00 
C 120.58 93.01 118.72 91.72 117.00 90.00
C 118.44 91.68 120.60 93.32 122.00 95.00 Z"/>
</g>
<g fill="#C3A244" fill-opacity="0.86" stroke="None">
<path d="
M 68.00 107.00 
C 78.35 104.77 68.65 96.14 63.00 103.00
C 66.90 108.09 56.14 109.22 60.26 113.74 C 64.38 118.27 69.42 110.56 68.00 107.00 Z"/>
</g>
<g fill="#E2D6A7" fill-opacity="0.20" stroke="None">
<path d="
M 138.00 108.00 
C 136.93 105.94 133.88 107.47 132.00 107.00
C 132.76 105.44 131.28 103.93 131.00 103.00
C 131.99 108.31 132.51 107.79 138.00 108.00 Z"/>
</g>
<g fill="#DED09C" fill-opacity="0.48" stroke="None">
<path d="
M 81.00 108.00 
C 81.40 106.58 81.19 105.01 79.00 104.00
C 78.82 103.85 81.00 107.98 81.00 108.00 Z"/>
</g>
<g fill="#D9C88C" fill-opacity="0.45" stroke="None">
<path d="
M 98.00 115.00 
C 97.46 112.98 94.59 111.18 93.00 110.00
C 93.71 110.62 97.73 114.27 98.00 115.00 Z"/>
</g>
<g fill="#D1B76D" fill-opacity="0.73" stroke="None">
<path d="
M 93.00 112.00 
C 88.39 113.27 83.67 115.63 81.00 120.00
C 85.27 118.82 92.82 117.37 93.00 112.00 Z"/>
</g>
<g fill="#E5DCB5" fill-opacity="0.29" stroke="None">
<path d="
M 147.00 116.00 
C 148.26 116.02 149.35 115.85 150.00 117.00
C 149.78 114.18 150.04 115.69 147.00 116.00 Z"/>
</g>
<g fill="#000000" fill-opacity="0.00" stroke="None">
<path d="
M 71.00 118.00 
C 68.27 118.86 64.31 120.68 64.00 124.00
C 67.63 124.58 72.27 122.34 71.00 118.00 Z"/>
</g>
<g fill="#D2B971" fill-opacity="0.70" stroke="None">
<path d="
M 146.00 121.00 
C 141.29 119.32 136.30 124.80 133.00 128.00
C 137.08 128.37 143.67 124.24 146.00 121.00 Z"/>
</g>
<g fill="#DFD09E" fill-opacity="0.53" stroke="None">
<path d="
M 84.00 126.00 
C 86.37 125.23 87.19 122.31 89.00 121.00
C 87.34 122.02 85.52 125.35 84.00 126.00 Z"/>
</g>
<g fill="#C8A952" fill-opacity="0.83" stroke="None">
<path d="
M 114.00 128.00 
C 111.06 127.85 108.11 127.73 106.00 130.00
C 105.50 136.64 105.55 143.43 115.00 142.00 C 124.45 140.57 125.74 138.99 132.00 133.00
C 124.97 134.12 123.21 137.62 115.67 138.67 C 108.13 139.72 111.39 132.48 114.00 128.00 Z"/>
</g>
<g fill="#E4D7AD" fill-opacity="0.24" stroke="None">
<path d="
M 140.00 141.00 
C 141.96 139.54 143.46 137.95 145.00 136.00
C 143.68 137.43 141.50 139.69 140.00 141.00 Z"/>
</g>
<g fill="#B3A980" fill-opacity="0.77" stroke="None">
<path d="
M 13.00 159.00 
C 13.61 159.44 17.15 159.17 17.00 159.00
C 17.44 155.74 13.75 156.30 12.00 155.00
C 11.64 156.70 12.20 157.89 13.00 159.00 Z"/>
</g>
<g fill="#E6E4D7" fill-opacity="0.16" stroke="None">
<path d="
M 15.00 161.00 
C 15.10 161.07 16.99 162.15 17.00 162.00
C 16.77 160.87 17.16 159.71 17.00 159.00
C 17.15 159.17 13.61 159.44 13.00 159.00
C 13.56 159.78 14.27 160.49 15.00 161.00 Z"/>
</g>
<g fill="#CFC8AF" fill-opacity="0.45" stroke="None">
<path d="
M 13.00 164.00 
C 15.14 162.04 15.10 162.90 17.00 164.00
C 16.99 163.50 17.10 162.48 17.00 162.00
C 16.99 162.15 15.10 161.07 15.00 161.00
C 14.83 161.02 13.23 163.67 13.00 164.00 Z"/>
</g>
<g fill="#AFA57A" fill-opacity="0.72" stroke="None">
<path d="
M 13.00 164.00 
C 10.90 167.10 15.86 175.17 21.00 175.00
C 21.50 174.98 22.00 175.00 22.00 175.00
C 21.42 174.69 20.32 173.72 20.00 173.00
C 21.00 172.89 22.73 173.47 23.00 172.00
C 21.13 172.20 19.94 170.38 18.00 171.00
C 17.78 168.46 17.07 166.59 17.00 164.00
C 15.10 162.90 15.14 162.04 13.00 164.00 Z"/>
</g>
<g fill="#B6AC85" fill-opacity="0.69" stroke="None">
<path d="
M 61.00 164.00 
C 60.64 164.95 60.96 166.98 61.00 168.00
C 60.57 171.23 62.70 173.73 62.00 177.00
C 59.75 177.32 60.09 175.06 59.00 174.00
C 58.90 175.32 58.50 176.66 57.00 177.00
C 53.14 177.32 54.08 171.98 51.00 171.00
C 48.81 174.18 52.28 176.88 50.25 180.25 C 48.21 183.61 42.51 180.07 42.00 184.00
C 48.43 187.09 52.94 181.92 58.00 180.00
C 60.07 179.22 63.21 178.14 64.00 176.00
C 64.00 172.00 64.00 168.00 64.00 164.00
C 62.34 163.84 62.02 163.33 61.00 164.00 Z"/>
</g>
<g fill="#BDB491" fill-opacity="0.76" stroke="None">
<path d="
M 138.00 163.00 
C 135.17 162.80 131.18 164.51 132.00 168.00
C 135.02 167.89 139.33 167.05 138.00 163.00 Z"/>
</g>
<g fill="#DEDBC7" fill-opacity="0.27" stroke="None">
<path d="
M 59.00 166.00 
C 58.87 166.47 58.75 167.75 59.00 168.00
C 59.36 167.78 60.68 168.24 61.00 168.00
C 60.96 166.98 60.64 164.95 61.00 164.00
C 60.46 164.36 59.14 165.48 59.00 166.00 Z"/>
</g>
<g fill="#B0A77D" fill-opacity="0.75" stroke="None">
<path d="
M 68.00 178.00 
C 68.23 176.41 68.00 174.61 68.00 173.00
C 67.43 170.09 69.50 165.47 66.00 164.00
C 63.82 169.50 67.07 175.04 66.00 181.00
C 68.34 181.43 67.79 179.41 68.00 178.00 Z"/>
</g>
<g fill="#C0B795" fill-opacity="0.72" stroke="None">
<path d="
M 75.00 165.00 
C 76.68 175.01 86.99 160.08 75.00 165.00 Z"/>
</g>
<g fill="#BBB089" fill-opacity="0.78" stroke="None">
<path d="
M 109.00 177.00 
C 109.15 177.26 109.23 175.38 108.00 175.00
C 110.80 174.51 113.83 177.31 114.00 180.00
C 110.67 180.00 107.33 180.00 104.00 180.00
C 105.77 177.97 109.48 179.47 112.00 179.00
C 111.74 177.61 109.95 178.22 109.00 178.00
C 103.27 179.64 99.90 174.27 98.00 170.00
C 100.55 169.98 102.25 168.26 103.00 166.00
C 94.24 163.14 90.90 175.67 100.00 178.00
C 94.09 180.77 93.99 172.82 90.00 174.00
C 86.84 176.65 93.20 178.07 90.00 181.00
C 90.00 181.00 90.50 181.00 91.00 181.00
C 97.00 181.00 103.00 181.00 109.00 181.00
C 113.00 181.00 117.00 181.00 121.00 181.00
C 119.41 175.15 124.03 165.40 117.00 164.00
C 117.29 168.77 117.96 173.44 119.00 178.00
C 113.47 179.49 107.50 167.64 104.00 176.00
C 105.81 176.40 107.13 176.83 109.00 177.00 Z"/>
</g>
<g fill="#B3AA82" fill-opacity="0.72" stroke="None">
<path d="
M 123.00 181.00 
C 126.56 178.30 125.90 167.88 123.00 164.00
C 120.38 169.37 123.03 175.45 123.00 181.00 Z"/>
</g>
<g fill="#B8B18D" fill-opacity="0.56" stroke="None">
<path d="
M 173.00 169.00 
C 173.21 168.74 173.89 167.98 174.00 168.00
C 174.00 166.67 174.00 165.33 174.00 164.00
C 170.92 163.21 169.79 166.58 170.00 169.00
C 170.99 168.92 172.01 169.10 173.00 169.00 Z"/>
</g>
<g fill="#B9AF88" fill-opacity="0.85" stroke="None">
<path d="
M 174.00 168.00 
C 173.89 167.98 173.21 168.74 173.00 169.00
C 172.02 174.63 173.72 180.45 166.00 181.00
C 172.09 184.00 178.91 176.01 183.00 172.00
C 183.96 170.68 184.84 166.54 184.00 165.00
C 181.37 162.29 180.27 168.38 179.00 170.00
C 176.91 169.93 176.02 168.30 174.00 168.00 Z"/>
</g>
<g fill="#D1CDB6" fill-opacity="0.46" stroke="None">
<path d="
M 183.00 172.00 
C 184.85 170.18 186.30 167.30 184.00 165.00
C 184.84 166.54 183.96 170.68 183.00 172.00 Z"/>
</g>
<g fill="#BFB793" fill-opacity="0.68" stroke="None">
<path d="
M 59.00 168.00 
C 58.75 167.75 58.87 166.47 59.00 166.00
C 54.63 164.08 50.22 169.74 56.00 171.00
C 56.46 169.75 58.03 168.60 59.00 168.00 Z"/>
</g>
<g fill="#AAA073" fill-opacity="0.71" stroke="None">
<path d="
M 23.00 171.00 
C 24.44 172.31 25.55 174.72 23.00 175.00
C 23.55 175.51 25.82 175.75 26.00 176.00
C 25.83 173.00 26.99 167.40 23.00 167.00
C 23.03 168.33 22.96 169.67 23.00 171.00 Z"/>
</g>
<g fill="#B8AE87" fill-opacity="0.80" stroke="None">
<path d="
M 162.00 174.00 
C 162.87 174.22 165.22 174.56 166.00 176.00
C 162.27 175.99 158.92 177.66 155.00 177.00
C 155.76 175.19 160.10 175.55 158.00 173.00
C 155.78 169.84 156.54 176.14 154.00 175.00
C 153.84 173.89 154.31 172.47 153.00 172.00
C 152.51 171.46 151.49 174.70 152.00 175.00
C 150.74 174.92 151.44 172.94 150.00 173.00
C 149.03 176.08 145.93 177.08 145.00 173.00
C 142.78 174.19 142.29 177.21 139.00 176.00
C 139.09 173.18 137.33 170.94 138.00 168.00
C 134.89 169.62 131.58 173.10 131.00 177.00
C 142.24 182.04 154.97 178.74 167.00 177.00
C 169.69 171.61 162.10 167.06 162.00 174.00 Z"/>
</g>
<g fill="#AFA57B" fill-opacity="0.84" stroke="None">
<path d="
M 77.00 173.00 
C 76.29 175.51 77.17 175.25 79.00 177.00
C 77.06 177.62 75.87 175.80 74.00 176.00
C 76.56 178.90 80.90 178.19 83.00 182.00
C 84.50 180.79 86.21 181.17 88.00 181.00
C 87.41 180.84 86.21 179.22 85.00 180.00
C 84.98 179.03 88.01 178.78 86.00 178.00
C 80.66 178.83 82.09 172.14 81.00 169.00
C 78.83 169.38 78.58 171.46 77.00 173.00 Z"/>
</g>
<g fill="#B3AA80" fill-opacity="0.74" stroke="None">
<path d="
M 27.00 180.00 
C 27.05 180.20 26.04 181.03 27.00 182.00
C 32.94 183.61 32.07 181.69 36.00 179.00
C 37.20 178.18 38.21 177.77 40.00 178.00
C 39.00 177.68 36.78 176.92 36.00 176.00
C 37.78 176.25 41.36 174.97 41.00 178.00
C 41.50 178.00 42.00 178.00 42.00 178.00
C 44.64 172.23 36.83 166.78 40.00 175.00
C 36.31 175.96 36.10 172.25 35.00 170.00
C 29.62 170.33 31.09 176.13 33.00 179.00
C 31.58 180.87 28.61 179.13 27.00 180.00 Z"/>
</g>
<g fill="#DED0B3" fill-opacity="0.73" stroke="None">
<path d="
M 23.00 172.00 
C 22.73 173.47 21.00 172.89 20.00 173.00
C 20.32 173.72 21.42 174.69 22.00 175.00
C 22.50 175.00 23.00 175.00 23.00 175.00
C 25.55 174.72 24.44 172.31 23.00 171.00
C 23.00 171.00 23.19 171.92 23.00 172.00 Z"/>
</g>
<g fill="#BEB793" fill-opacity="0.44" stroke="None">
<path d="
M 57.00 177.00 
C 58.50 176.66 58.90 175.32 59.00 174.00
C 59.96 171.12 56.75 170.11 56.00 173.00
C 56.54 174.31 57.41 175.44 57.00 177.00 Z"/>
</g>
<g fill="#DBD7C6" fill-opacity="0.26" stroke="None">
<path d="
M 150.00 173.00 
C 151.44 172.94 150.74 174.92 152.00 175.00
C 151.49 174.70 152.51 171.46 153.00 172.00
C 151.57 171.49 151.55 171.80 150.00 173.00 Z"/>
</g>
<g fill="#CDCAB3" fill-opacity="0.19" stroke="None">
<path d="
M 68.00 178.00 
C 68.85 175.74 68.18 175.05 68.00 173.00
C 68.00 174.61 68.23 176.41 68.00 178.00 Z"/>
</g>
<g fill="#DED2B9" fill-opacity="0.65" stroke="None">
<path d="
M 74.00 176.00 
C 75.87 175.80 77.06 177.62 79.00 177.00
C 77.17 175.25 76.29 175.51 77.00 173.00
C 76.35 173.64 73.88 174.65 74.00 176.00 Z"/>
</g>
<g fill="#DFCFB2" fill-opacity="0.81" stroke="None">
<path d="
M 162.00 174.00 
C 160.84 173.71 159.10 173.16 158.00 173.00
C 160.10 175.55 155.76 175.19 155.00 177.00
C 158.92 177.66 162.27 175.99 166.00 176.00
C 165.22 174.56 162.87 174.22 162.00 174.00 Z"/>
</g>
<g fill="#DCD0B3" fill-opacity="0.65" stroke="None">
<path d="
M 86.00 178.00 
C 88.01 178.78 84.98 179.03 85.00 180.00
C 86.21 179.22 87.41 180.84 88.00 181.00
C 88.50 180.95 89.50 181.00 90.00 181.00
C 93.20 178.07 86.84 176.65 90.00 174.00
C 88.50 174.44 86.64 176.58 86.00 178.00 Z"/>
</g>
<g fill="#E6E2D6" fill-opacity="0.19" stroke="None">
<path d="
M 22.00 177.00 
C 22.93 177.65 24.91 176.95 26.00 178.00
C 26.09 177.51 25.97 176.50 26.00 176.00
C 25.82 175.75 23.55 175.51 23.00 175.00
C 23.00 175.00 22.50 175.00 22.00 175.00
C 22.00 175.00 21.50 174.98 21.00 175.00
C 20.81 175.17 21.86 176.90 22.00 177.00 Z"/>
</g>
<g fill="#E4D3B3" fill-opacity="0.82" stroke="None">
<path d="
M 109.00 177.00 
C 109.00 177.00 108.92 177.99 109.00 178.00
C 109.95 178.22 111.74 177.61 112.00 179.00
C 109.48 179.47 105.77 177.97 104.00 180.00
C 107.33 180.00 110.67 180.00 114.00 180.00
C 113.83 177.31 110.80 174.51 108.00 175.00
C 109.23 175.38 109.15 177.26 109.00 177.00 Z"/>
</g>
<g fill="#E6D4B6" fill-opacity="0.81" stroke="None">
<path d="
M 40.00 178.00 
C 40.49 178.06 41.00 178.00 41.00 178.00
C 41.36 174.97 37.78 176.25 36.00 176.00
C 36.78 176.92 39.00 177.68 40.00 178.00 Z"/>
</g>
<g fill="#CDC3A4" fill-opacity="0.43" stroke="None">
<path d="
M 58.00 180.00 
C 63.27 179.65 64.13 182.30 64.00 176.00
C 63.21 178.14 60.07 179.22 58.00 180.00 Z"/>
</g>
<g fill="#C0B896" fill-opacity="0.61" stroke="None">
<path d="
M 27.00 182.00 
C 26.04 181.03 27.05 180.20 27.00 180.00
C 26.89 179.54 25.93 178.39 26.00 178.00
C 24.91 176.95 22.93 177.65 22.00 177.00
C 20.82 176.85 19.94 177.43 19.00 178.00
C 20.90 180.79 23.99 181.19 27.00 182.00 Z"/>
</g>
<g fill="#DCD7C4" fill-opacity="0.27" stroke="None">
<path d="
M 36.00 179.00 
C 37.09 178.51 37.48 179.75 38.00 180.00
C 38.18 180.09 40.77 181.03 41.00 181.00
C 41.75 179.92 39.94 179.48 42.00 178.00
C 42.00 178.00 41.50 178.00 41.00 178.00
C 41.00 178.00 40.49 178.06 40.00 178.00
C 38.21 177.77 37.20 178.18 36.00 179.00 Z"/>
</g>
<g fill="#BBB28B" fill-opacity="0.64" stroke="None">
<path d="
M 41.00 181.00 
C 40.77 181.03 38.18 180.09 38.00 180.00
C 38.42 181.78 38.45 184.68 41.00 181.00 Z"/>
</g>
<g fill="#C6C1A4" fill-opacity="0.28" stroke="None">
<path d="
M 109.00 181.00 
C 103.00 181.00 97.00 181.00 91.00 181.00
C 95.12 184.05 104.60 181.43 109.00 181.00 Z"/>
</g>
</svg>